<?xml version="1.0" encoding="utf-8"?>
<!-- Generator: Adobe Illustrator 16.0.3, SVG Export Plug-In . SVG Version: 6.00 Build 0)  -->
<!DOCTYPE svg PUBLIC "-//W3C//DTD SVG 1.1//EN" "http://www.w3.org/Graphics/SVG/1.1/DTD/svg11.dtd">
<svg version="1.1" id="Layer_1" xmlns="http://www.w3.org/2000/svg" xmlns:xlink="http://www.w3.org/1999/xlink" x="0px" y="0px"
	 width="547.488px" height="700px" viewBox="0 0 547.488 700" enable-background="new 0 0 547.488 700" xml:space="preserve">
<path opacity="0.5" fill="#6F96CE" d="M435.325,682.807c-8.067,7.381,4.447,15.885,14.316,17.017
	c11.504,1.329,26.033-5.788,36.755-13.156c10.725-7.372,16.1-14.984-1.233-24.279c-17.333-9.296-30.888-9.612-35.521,3.418
	C445.172,678.373,441.579,677.087,435.325,682.807z"/>
<path opacity="0.5" fill="#6F96CE" d="M415.482,519.662c-9.562,5.973-13.431,8.7-10.448,16.16c2.99,7.468,7.918,8.211,21.493,13.066
	c13.582,4.844,16.748,11.619,32.33,19.984c15.575,8.364,25.974,8.443,33.379-5.436c7.408-13.883,12.244-17.542-7.258-28.358
	c-19.5-10.817-35.596-21.054-45.612-21.6C429.345,512.927,422.654,515.175,415.482,519.662z"/>
<path opacity="0.5" fill="#6F96CE" d="M262.841,438.396l74.76,43.165c19.432,11.213,21.557,28.341,4.731,38.053l-98.373,56.798
	c-16.824,9.711-46.484,8.482-65.913-2.733l-74.76-43.164L262.841,438.396z"/>
<g>
	<g>
		<g>
			<path fill="#2D1D1B" d="M342.113,483.182l-80.51-37.922L119.29,511.397v16.029l66.682,38.498
				c17.328,10.006,43.783,11.102,58.792,2.437l87.743-50.659c4.027-2.326,6.8-5.134,8.418-8.185
				c0.022-0.027,0.044-0.039,0.061-0.071C348.179,495.53,342.113,483.182,342.113,483.182z"/>
			<path fill="#402B29" d="M261.604,429.23l66.685,38.499c17.324,10.005,19.226,25.277,4.219,33.944l-87.743,50.657
				c-15.009,8.667-41.464,7.565-58.792-2.438l-66.682-38.495L261.604,429.23z"/>
		</g>
		<path fill="#392624" d="M260.43,380.562c0.242-3.25-71.792,5.486-86.452,22.319c-14.152,16.25-12.805,85.229-12.805,85.229
			s44.962,33.519,88.465,3.057c20.845-14.596,15.734-27.228,14.06-36.978C260.557,435.889,259.042,399.147,260.43,380.562z"/>
		<path fill="#2D1D1B" d="M194.452,441.849c0,0,11.803,7.723,22.822,6.83c11.018-0.9,1.262-18.269,1.262-18.269L194.452,441.849z"/>
		<polygon fill="#5B413E" points="389.883,313.489 20,527.041 20,217.562 389.883,4.012 		"/>
		<g>
			<polygon fill="#4A3331" points="410.018,325.131 40.135,538.682 40.135,229.204 410.018,15.651 			"/>
			<polygon fill="#5583C3" points="399.473,283.65 50.679,485.027 50.679,236.805 399.473,35.427 			"/>
			<polygon fill="#6F96CE" points="185.342,169.589 58.867,242.609 58.867,471.181 185.342,398.16 			"/>
			<polygon fill="#FFFFFF" points="178.305,183.177 68.622,246.501 68.622,283.022 178.305,219.698 			"/>
			<g>
				<polygon fill="#4278BD" points="145.102,249.789 68.622,293.942 68.622,300.564 145.102,256.409 				"/>
				<polygon fill="#5583C3" points="155.535,243.764 155.535,250.384 178.305,237.238 178.305,230.618 				"/>
			</g>
			<g>
				<polygon fill="#4278BD" points="145.102,262.207 68.622,306.362 68.622,312.982 145.102,268.827 				"/>
				<polygon fill="#5583C3" points="155.535,256.184 155.535,262.804 178.305,249.658 178.305,243.038 				"/>
			</g>
			<g>
				<polygon fill="#4278BD" points="145.102,274.739 68.622,318.894 68.622,325.513 145.102,281.358 				"/>
				<polygon fill="#5583C3" points="155.535,268.716 155.535,275.335 178.305,262.189 178.305,255.569 				"/>
			</g>
			<g>
				<polygon fill="#4278BD" points="145.102,287.159 68.622,331.313 68.622,337.934 145.102,293.778 				"/>
				<polygon fill="#5583C3" points="155.535,281.135 155.535,287.755 178.305,274.609 178.305,267.987 				"/>
			</g>
			<g>
				<polygon fill="#4278BD" points="145.102,309.558 68.622,353.713 68.622,360.334 145.102,316.178 				"/>
				<polygon fill="#5583C3" points="155.535,303.536 155.535,310.155 178.305,297.009 178.305,290.39 				"/>
			</g>
			<g>
				<polygon fill="#4278BD" points="145.102,321.979 68.622,366.132 68.622,372.756 145.102,328.598 				"/>
				<polygon fill="#5583C3" points="155.535,315.953 155.535,322.573 178.305,309.43 178.305,302.81 				"/>
			</g>
			<g>
				<polygon fill="#4278BD" points="145.102,334.017 68.622,378.169 68.622,384.787 145.102,340.635 				"/>
				<polygon fill="#5583C3" points="155.535,327.992 155.535,334.613 178.305,321.467 178.305,314.847 				"/>
			</g>
			<g>
				<polygon fill="#4278BD" points="145.102,346.436 68.622,390.591 68.622,397.211 145.102,353.056 				"/>
				<polygon fill="#4278BD" points="113.354,389.396 113.354,396.017 178.305,358.676 178.305,352.059 				"/>
				<polygon fill="#4278BD" points="131.357,391.942 131.357,398.562 178.305,371.57 178.305,364.949 				"/>
			</g>
			<polygon fill="#6F96CE" points="197.266,162.706 197.266,391.272 389.883,280.167 389.883,51.6 			"/>
			<polygon fill="#2C2C29" points="375.449,127.47 215.005,220.017 215.005,257.443 375.449,164.896 			"/>
			<polygon fill="#4A3331" points="318.98,168.188 221.318,224.521 221.318,247.301 318.98,190.969 			"/>
			<path fill="#4A3331" d="M272.876,402.516c0,11.791-14.213,29.557-31.744,39.674c-17.529,10.128-31.742,8.771-31.742-3.021
				c0-11.792,14.213-29.554,31.742-39.676C258.664,389.37,272.876,390.727,272.876,402.516z"/>
			<path fill="#FFFFFF" d="M261.044,408.891c0,6.724-8.106,16.854-18.106,22.63c-10,5.771-18.104,4.998-18.104-1.727
				s8.104-16.856,18.104-22.628C252.938,401.391,261.044,402.164,261.044,408.891z"/>
		</g>
		<polygon fill="#2D1D1B" points="40.135,229.204 20,217.562 20,527.041 40.135,538.682 		"/>
		<polygon fill="#5B413E" points="410.018,15.651 389.883,4.012 20,217.562 40.135,229.204 		"/>
		<path fill="#FFFFFF" d="M186.571,143.014c-48.373,27.631-98.671,58.337-147.188,85.754c-0.517,0.293-0.83,68.3-0.078,82.686
			c0.074,1.419,1.286,1.519,1.399,0.122c1.115-13.764,1.74-67.937,0.73-81.252c43.06-24.084,99.891-56.35,146.012-85.812
			C188.372,143.919,187.552,142.452,186.571,143.014z"/>
		<path fill="#FFFFFF" d="M40.662,336.854c-0.036-0.257-0.393-0.162-0.417,0.057c-1.574,13.944-2.58,71.358-0.931,85.377
			c0.123,1.04,1.549,1.065,1.643,0C42.243,407.607,42.566,350.154,40.662,336.854z"/>
		<path fill="#FFFFFF" d="M303.479,76.616c-13.909,7.411-27.994,16.222-41.153,23.607c-9.855,5.528-22.83,12.785-31.7,18.386
			c-2.009,1.27-1.367,2.205,0.809,1.379c10.731-4.082,21.663-11.117,31.863-16.775c12.64-7.012,26.801-15.406,40.653-25.14
			C304.773,77.495,304.258,76.201,303.479,76.616z"/>
		<g>
			<path fill="#2D1D1B" d="M56.322,503.304c-1.707-2.269-2.512-4.914-4.009-7.275c-0.223-0.354-0.934-0.372-1.001,0.132
				c-0.402,2.959,1.017,6.103,2.587,8.56c1.318,2.069,3.828,5.632,6.584,5.409c0.49-0.04,0.866-0.455,0.732-0.962
				C60.62,506.895,57.719,505.162,56.322,503.304z"/>
			<path fill="#2D1D1B" d="M81.502,500.004c-4.445-2.476-13.315-1.06-17.011,2.367c-0.294,0.272-0.042,0.697,0.3,0.728
				c2.86,0.275,5.665-0.464,8.519-0.586c2.638-0.114,5.312,0.471,7.89-0.177C82.255,502.076,82.456,500.537,81.502,500.004z"/>
			<path fill="#2D1D1B" d="M259.278,384.552c-0.608,0.089-0.566,0.91-0.155,1.194c1.874,1.28,4.003,2.146,5.892,3.41
				c1.862,1.247,3.389,3.206,5.376,4.202c0.953,0.482,2.215-0.314,1.877-1.442C270.894,387.334,263.792,383.88,259.278,384.552z"/>
			<path fill="#2D1D1B" d="M217.434,408.925c-7.217,2.653-14.21,14.428-11.083,21.972c0.259,0.619,1.281,1.002,1.641,0.214
				c1.608-3.506,1.832-7.49,3.31-11.079c1.618-3.928,4.295-7.102,6.424-10.73C217.833,409.121,217.652,408.846,217.434,408.925z"/>
			<path fill="#2D1D1B" d="M196.354,434.289c-2.453,1.534-4.073,3.756-6.916,4.795c-2.298,0.841-4.918,0.519-7.119,1.497
				c-0.18,0.079-0.264,0.385-0.143,0.543c3.806,4.984,15.135,0.069,16.189-5.292C198.582,434.727,197.432,433.611,196.354,434.289z"
				/>
			<path fill="#2D1D1B" d="M199.85,426.03c-1.836-1.519-4.656-1.177-6.906-1.697c-2.158-0.498-4.617-2.033-6.83-1.53
				c-0.387,0.092-0.652,0.56-0.53,0.935c0.79,2.45,4.147,3.455,6.399,4.085c2.416,0.682,5.805,1.579,7.866-0.245
				C200.263,427.21,200.287,426.39,199.85,426.03z"/>
			<path fill="#2D1D1B" d="M369.861,331.83c-2.549,2.637-4.796,5.601-7.679,7.905c-2.776,2.218-6.706,3.106-9.186,5.538
				c-0.258,0.25-0.127,0.688,0.205,0.788c3.604,1.041,8.115-1.789,10.914-3.817c3.366-2.436,6.169-5.456,7.214-9.554
				C371.55,331.852,370.483,331.182,369.861,331.83z"/>
			<path fill="#2D1D1B" d="M392.581,304.266c-1.452,2.372-2.431,5-3.932,7.368c-1.49,2.352-3.856,4.171-5.059,6.678
				c-0.446,0.925,0.297,2.261,1.443,1.876c5.221-1.762,9.418-10.262,8.964-15.54C393.936,303.92,392.991,303.588,392.581,304.266z"
				/>
			<path fill="#2D1D1B" d="M403.836,317.212c-1.124-1.827-4.495-0.498-6.025,0.055c-2.537,0.909-4.967,2.097-6.533,4.368
				c-0.634,0.925,0.416,1.795,1.291,1.677C394.173,323.093,405.182,319.401,403.836,317.212z"/>
			<path fill="#2D1D1B" d="M212.176,545.337c-3.457-0.319-7.054-0.456-10.423-1.321c-3.113-0.8-5.778-2.649-8.872-3.419
				c-0.49-0.123-0.777,0.371-0.601,0.786c2.993,6.948,14.257,8.78,20.378,5.737C213.585,546.656,213.035,545.41,212.176,545.337z"/>
			<path fill="#2D1D1B" d="M229.429,542.726c-4.165-3.821-12.113-4.687-17.333-3.017c-0.393,0.127-0.415,0.705,0,0.817
				c2.657,0.744,5.35,1.233,8.012,1.933c2.69,0.71,5.199,2.195,7.915,2.686C229.335,545.375,230.582,543.789,229.429,542.726z"/>
			<path fill="#2D1D1B" d="M326.347,480.58c-1.286-2.631-4.477-4.469-6.925-5.903c-2.514-1.467-5.334-2.925-8.308-2.702
				c-0.486,0.04-0.704,0.569-0.385,0.936c1.853,2.152,4.486,3.412,6.799,5.012c2.313,1.591,4.447,3.905,7.087,4.909
				C325.976,483.353,326.88,481.66,326.347,480.58z"/>
			<path fill="#2D1D1B" d="M331.261,483.264c-0.327-0.551-1.202-0.366-1.433,0.168c-0.95,2.178-1.063,4.341-2.659,6.278
				c-0.717,0.874-1.626,1.67-2.549,2.322c-0.976,0.686-2.125,0.905-3.083,1.604c-0.979,0.717-0.498,2.169,0.604,2.396
				C327.755,497.213,334.182,488.156,331.261,483.264z"/>
		</g>
	</g>
	<g>
		<path fill="#4454A5" d="M104.749,236.587l-5.122,2.956v-4.731l14.477-8.36v4.733l-5.12,2.955v20.144l-4.235,2.447V236.587z"/>
		<path fill="#4454A5" d="M119.348,223.423l5.064-2.923l5.84,21.505l-4.467,2.578l-1.146-5.251l-5.695,3.287l-1.141,6.572
			l-4.294,2.481L119.348,223.423z M119.805,237.737l3.979-2.298l-0.431-2.042c-0.516-2.182-1.032-4.823-1.517-7.133l-0.114,0.063
			c-0.459,2.896-0.944,6.078-1.458,8.854L119.805,237.737z"/>
		<path fill="#4454A5" d="M135.409,226.246l-4.864-9.287l4.693-2.708l1.631,3.753c0.431,0.894,0.829,1.962,1.345,3.229l0.116-0.068
			c0.428-1.811,0.829-3.341,1.2-4.698l1.489-5.553l4.495-2.595l-4.84,15.154l5.152,9.541l-4.691,2.708l-1.862-3.999
			c-0.457-1.033-0.886-2.048-1.401-3.275l-0.113,0.066c-0.429,1.772-0.857,3.282-1.26,4.81l-1.748,6.083l-4.519,2.609
			L135.409,226.246z"/>
	</g>
	<g>
		<path fill="#FFFFFF" d="M228.443,230.144l81.266-46.967c0,0,6.782,119.691,7.446,148.394c0.665,28.7-14.337,75.071-30.188,78.709
			c-15.847,3.646-25.152-14.544-28.613-20.853c-3.462-6.311-7.437-45.158-7.437-57.856c0-12.697-0.663-44.996-1.325-56.833
			c-0.663-11.836-2.349-22.766-8.461-29.722C235.022,238.062,228.443,230.144,228.443,230.144z"/>
		<g>
			<path fill="#FFFFFF" d="M409.843,82.751l-106.067,61.238c-2.234,30.6-2.221,73.063-2.492,83.741
				c-0.359,13.975,5.382,92.832,4.171,110.204c-1.215,17.372-4.644,46.39-7.507,54.773c-2.864,8.383-9.134,19.146-9.134,19.146
				l100.917-57.576l3.195-1.826c13.039-7.527,18.119-40.243,18.119-116.687c0-14.801-0.55-32.031-1.133-50.273
				C408.829,151.648,407.613,113.528,409.843,82.751z"/>
			<path fill="#F3EAE9" d="M420.162,34.062c-1.544,0.122-3.078,0.286-4.604,0.467c-2.012,4.259-3.678,7.799-3.678,7.799
				s-81.144,34.774-87.771,40.073c-6.621,5.3-12.488,12.901-17.551,37.9c-0.73,3.612-1.347,8.15-1.88,13.279
				c-0.337,3.247-0.634,6.747-0.901,10.409l106.067-61.238C411.352,61.995,414.421,44.575,420.162,34.062z"/>
		</g>
		<path fill="#FFFFFF" d="M449.61,23.983c-8.988-5.19-16.781-5.979-23.2-2.427l-0.052-0.004l-0.425,0.243
			c-0.021,0.013-0.044,0.019-0.069,0.033c-0.009,0.007-0.018,0.016-0.026,0.022L321.751,81.227l23.748,2.156l100.024-57.069
			c0.695,0.352,1.382,0.697,2.099,1.11L449.61,23.983z"/>
		<g>
			<path fill="#EDDCDA" d="M282.88,413.445c-2.809,0-5.851-0.939-9.099-2.816c-25.511-14.725-25.511-60.339-25.511-123.47
				c0-40.653-19.627-52.214-19.827-52.326v-4.689c1.63,0.781,2.864,1.747,4.031,2.652c5.503,4.258,19.767,18.737,19.767,54.362
				c0,61.798,0,106.449,23.526,120.031c4.433,2.558,8.048,2.96,11.057,1.219c14.215-8.203,16.129-61.848,16.129-113.244
				c0-14.735-0.551-31.937-1.128-50.141c-2.238-69.845-4.775-149.003,19.925-163.796c6.521-3.902,14.504-3.179,23.748,2.156
				l-1.99,3.443c-8.006-4.624-14.459-5.338-19.716-2.188c-22.692,13.589-20.087,94.913-17.997,160.256
				c0.586,18.242,1.137,35.469,1.137,50.27c0,76.446-5.081,109.159-18.119,116.689C286.973,412.913,284.992,413.445,282.88,413.445z
				"/>
		</g>
		<polygon fill="#CCBBBB" points="447.621,27.424 449.61,23.983 345.499,83.383 343.509,86.826 		"/>
		<g>
			<path fill="#CCBBBB" d="M328.087,336.91c-0.14,2.374-0.288,4.66-0.455,6.883l66.354-38.35c0.178-2.26,0.345-4.558,0.493-6.903
				L328.087,336.91z"/>
			<path fill="#CCBBBB" d="M327.078,154.004c-0.044,2.211-0.084,4.437-0.105,6.681l66.421-38.35c0.021-2.242,0.053-4.465,0.088-6.67
				L327.078,154.004z"/>
			<path fill="#CCBBBB" d="M326.946,177.006c0.014,2.188,0.039,4.382,0.065,6.582l66.47-38.379c-0.031-2.199-0.058-4.39-0.078-6.574
				L326.946,177.006z"/>
			<path fill="#CCBBBB" d="M327.31,199.722c0.047,2.18,0.104,4.358,0.157,6.529l66.513-38.399c-0.062-2.175-0.118-4.349-0.174-6.524
				L327.31,199.722z"/>
			<path fill="#CCBBBB" d="M327.938,222.284c0.066,2.183,0.136,4.351,0.202,6.502l66.523-38.335
				c-0.071-2.182-0.141-4.371-0.211-6.565L327.938,222.284z"/>
			<path fill="#CCBBBB" d="M328.646,244.8c0.07,2.193,0.131,4.362,0.193,6.509l66.514-38.355c-0.062-2.107-0.123-4.24-0.185-6.39
				L328.646,244.8z"/>
			<path fill="#CCBBBB" d="M329.224,267.395c0.04,2.227,0.07,4.415,0.096,6.563l66.486-38.428c-0.017-2.101-0.052-4.245-0.087-6.428
				L329.224,267.395z"/>
			<path fill="#CCBBBB" d="M329.356,290.243c-0.014,2.256-0.027,4.474-0.054,6.649l66.461-38.375
				c0.021-2.201,0.043-4.407,0.052-6.615L329.356,290.243z"/>
			<path fill="#CCBBBB" d="M329.027,313.33c-0.058,2.293-0.118,4.542-0.188,6.73l66.434-38.356c0.08-2.228,0.146-4.473,0.201-6.738
				L329.027,313.33z"/>
			<path fill="#CCBBBB" d="M325.962,360.932c-0.323,2.547-0.678,4.955-1.058,7.229l66.069-38.202
				c0.429-2.323,0.821-4.758,1.18-7.305L325.962,360.932z"/>
			<path fill="#CCBBBB" d="M390.387,347.279l-6.323,3.625l-9.492,5.434l-4.806,2.754l-49.986,28.627
				c-2.348,5.579-5.116,9.531-8.465,11.469c3.637-2.086,70.444-40.414,70.444-40.414
				C385.165,356.778,388.021,353.054,390.387,347.279z"/>
		</g>
		<g>
			<path fill="#2C2C29" d="M343.872,109.401l-5.12,2.958v-4.732l14.477-8.358v4.731l-5.125,2.958v20.144l-4.232,2.444V109.401z"/>
			<path fill="#2C2C29" d="M358.476,96.238l5.063-2.923l5.837,21.506l-4.464,2.577l-1.146-5.251l-5.691,3.287l-1.146,6.573
				l-4.294,2.479L358.476,96.238z M358.93,110.551l3.979-2.298l-0.429-2.042c-0.516-2.183-1.032-4.823-1.521-7.136l-0.108,0.065
				c-0.459,2.898-0.949,6.079-1.456,8.855L358.93,110.551z"/>
			<path fill="#2C2C29" d="M374.535,99.06l-4.867-9.287l4.697-2.709l1.631,3.753c0.43,0.895,0.826,1.964,1.344,3.227l0.116-0.065
				c0.425-1.81,0.827-3.34,1.202-4.698l1.488-5.553l4.494-2.595l-4.842,15.153l5.152,9.542l-4.691,2.708l-1.863-3.999
				c-0.454-1.036-0.884-2.048-1.399-3.275l-0.113,0.066c-0.428,1.773-0.856,3.282-1.259,4.81l-1.75,6.082l-4.516,2.61L374.535,99.06
				z"/>
		</g>
	</g>
</g>
<g>
	<g>
		<path fill="#FBC8B7" d="M420.446,379.917c-0.503-1.879-1.159-3.681-1.854-5.469c-4.516,2.356-9.063,4.791-9.063,4.791
			c-2.274-0.039-3.646-1.367-5.921-1.185c-4.795,0.394-5.268,0.478-6.793,0.928c-1.527,0.444-0.954,2.517,0.2,2.648
			c0.917,0.106,3.699-1.225,5.447,1.112c0.657,0.873-2.431,2.11-6.104,3.396c-3.673,1.291-8.28,1.945-9.593,2.865
			c-1.303,0.914,1.313,5.806,8.504,5.819c7.192,0.014,11.085-1.518,13.865-3.471c1.999-1.404,3.051-4.176,5.395-6.057
			c1.229-0.329,3.758-1.032,6.665-1.828C420.994,382.279,420.762,381.089,420.446,379.917z"/>
	</g>
	<path fill="#EDDCDA" d="M455.593,313.874c0,0-6.058,3.098-9.213,7.265c-3.163,4.169-4.889,16.017-5.256,18.709
		c-0.363,2.694-4.748,23.039-4.748,23.039s-6.262,4.368-9.849,5.907c-3.58,1.534-14.638,7.618-14.638,7.618s1.766,3.854,2.895,6.182
		c1.127,2.327,1.582,4.583,1.582,4.583s29.222-5.1,32.909-8.736c3.685-3.639,17.444-57.302,17.444-57.302L455.593,313.874z"/>
	<path fill="#2D1D1B" d="M445.522,380.39c0,0-9.682,24.695-11.182,34.691c-1.499,9.996-4.511,25.128-6.317,37.721
		c-1.806,12.593-1.783,24.862-0.938,37.161c0.331,4.88,2.114,17.638,1.176,24.569c1.058,4.508,11.62,5.067,12.872-0.171
		c0.776-3.244,8.885-32.011,9.707-41.057c0.82-9.052-1.321-15.535-1.321-15.535s13.187-28.233,17.814-39.348
		c4.624-11.105,1.478-24.876,1.478-24.876L445.522,380.39z"/>
	<path fill="#2D1D1B" d="M440.952,513.154c0,0,0.355,2.974,1.287,6.087c0.93,3.112-0.215,7.46-0.215,7.46s-0.673,1.91-3.555,2.476
		c-2.689,0.531-4.858-0.114-4.858-0.114s-2.645,3.191-6.095,5.635c-3.454,2.445-11.075,4.342-13.144,4.027
		c-3.348-0.51-5.138-3.117-4.879-4.801c0.253-1.678,4.197-6.331,7.424-8.351c2.104-1.312,6.873-5.738,8.308-7.276
		c2.369-2.554,4.119-5.37,4.119-5.37L440.952,513.154z"/>
	<path fill="#2D1D1B" d="M490.654,538.498c0,0,1.784,6.633,1.566,10.471c-0.228,3.835-1.142,4.755-2.3,6.048
		c-1.164,1.294-2.527,0.735-2.527,0.735s-0.534,7.913-4.285,11.113c-3.751,3.201-10.556,3.504-13.683,2.345
		c-3.126-1.164-1.07-6.83,1.99-12.389c3.057-5.556,6.961-11.538,7.932-16.558C486.833,539.232,490.654,538.498,490.654,538.498z"/>
	<path fill="#402B29" d="M480.213,390.621c0,0,4.741,6.703,8.517,18.496c2.66,8.294,2.231,28.185,2.231,28.185
		s0.682,19.58-0.586,26.353c-1.259,6.772-1.155,8.147-1.155,8.147s5.44,16.228,4.601,35.428c-0.839,19.2-2.404,32.969-2.404,32.969
		s-1.075,3.633-5.999,4.133c-4.495,0.454-7.773-2.658-7.773-2.658s-8.234-40.646-11.286-49.908
		c-3.048-9.27-4.176-19.947-4.176-19.947l-6.234-45.638c0,0-12.336-8.056-6.01-28.362
		C453.896,385.099,480.213,390.621,480.213,390.621z"/>
	<path fill="#FFFFFF" d="M494.293,338.735c-6.113-12.158-22.572-20.919-35.785-19.01c-6.33,5.038-9.26,8.41-11.542,14.452
		c-2.063,5.465-2.943,11.931-2.281,17.639c1.991,17.157-2.078,33.855-3.561,40.396c7.009,7.327,16.308,12.077,26.579,13.855
		c5.571,0.968,9.642-1.128,15.063-3.139c0.806-0.293,1.151-0.835,1.261-1.648c1.845-13.869,6.607-25.49,11.411-38.456
		C498.01,355.896,497.783,345.676,494.293,338.735z"/>
	<g>
		<polygon fill="#5583C3" points="509.862,389.755 496.207,414.32 461.045,394.285 474.694,369.721 477.275,371.084 		"/>
		<polygon fill="#6F96CE" points="512.438,391.124 498.771,415.716 463.581,395.729 477.275,371.084 		"/>
		<polygon fill="#FFFFFF" points="475.233,370.007 461.867,393.954 463.336,394.74 476.759,370.814 		"/>
		<polygon fill="#EDDCDA" points="475.443,371.067 471.059,378.972 465.916,376.193 470.109,368.274 		"/>
		<polygon fill="#FFFFFF" points="472.912,376.856 460.528,377.452 465.679,389.887 		"/>
	</g>
	<path fill="#F9BBA7" d="M462.331,312.177c0,0,1.263,8.365-1.803,11.262c-3.064,2.897-3.087,8.852,3.053,10.852
		c7.442,2.427,12.688-2.938,17.323-6.633c-2.003-4.245-2.982-4.219-2.982-16.133C477.922,301.832,462.331,312.177,462.331,312.177z"
		/>
	<path fill="#FBC8B7" d="M481.936,401.194c0,0-3.821,0-6.492,1.276c-1.396-1.015-4.343-2.457-4.343-2.457s-1.983,5.833,1.812,9.898
		c3.791,4.066,8.586,1.741,11.489-0.726C487.313,406.712,481.936,401.194,481.936,401.194z"/>
	<path fill="#EDDCDA" d="M489.885,332.338c0,0,6.725,2.579,11.526,11.711c4.648,8.859,10.545,26.266,12.207,33.394
		c2.239,9.624,1.819,13.064,0.215,15.666c-2.854,4.63-6.922,7.937-12.156,11.118c-8.595,5.229-16.408,6.56-16.408,6.56
		s-5.877-1.022-5.877-10.773c1.478-1.456,4.224-1.268,8.617-5.273c5.584-5.09,9.747-9.506,9.747-9.506s-6.634-9.356-13.135-19.676
		C475.823,344.95,489.885,332.338,489.885,332.338z"/>
	<path fill="#EDDCDA" d="M478.193,319.462c0,0-1.435,5.056-5.281,7.953c-4.644,3.494-13.371,4.064-13.371,6.449
		c2.535,0,3.025,0.147,3.025,1.975c0,3.426,1.015,4.212,1.015,4.212s6.296-1.793,10.834-3.684
		c5.688-2.371,8.272-10.236,8.272-10.236S481.573,319.143,478.193,319.462z"/>
	<path fill="#EDDCDA" d="M459.541,319.725c0,0-3.682,4.004-5.266,5.847c-1.578,1.843-0.654,5.241-1.448,6.766
		c-0.789,1.526-1.14,2.561-1.14,2.561s3.287-0.666,3.926-2.561c0.639-1.897,3.928,1.526,3.928,1.526l2.326-1.91
		c0,0-3.507-2.246-2.326-4.644c1.185-2.396,3.16-5.555,3.16-5.555L459.541,319.725z"/>
	<g>
		<path fill="#FBC8B7" d="M475.802,291.552c-4.614-5.103-16.765-7.197-21.119,0.278c-3.279,5.623-3.414,15.635-2.521,20.238
			c1.861,9.658,9.793,15.411,18.931,7.988C479.802,312.975,483.755,300.35,475.802,291.552z"/>
		<path fill="#2D1D1B" d="M486.02,300.778c0.797-4.895-1.835-8.494-6.27-8.599c0.458-3.713-1.767-7.375-5.238-9.168
			c-5.745-2.967-12.545-0.827-18.425,0.826c-1.697-0.792-5.868-3.313-6.524-1.156c-0.467,1.548,0.451,3.076,1.312,4.342
			c-1.696-0.322-5.046-1.758-6.515-0.632c-3.499,2.665,2.527,7.409,5.622,8.817c2.214,1.01,4.88,1.673,7.505,1.712
			c-0.246,0.334-0.465,0.682-0.648,1.045c-0.297,0.585-0.136,1.242,0.421,1.607c2.32,1.516,6.549,2.131,9.269,0.614
			c0.052,2.445,0.84,4.91,2.768,6.373c0.875,0.662,2.681,1.292,4.255,1.3c0.42,2.209,2.432,6.142,4.372,6.918
			C480.279,312.438,485.452,304.329,486.02,300.778z"/>
		<path fill="#FBC8B7" d="M471.026,308.784c0,0,2.663-4.038,5.032-0.965c2.371,3.071-2.487,6.055-2.487,6.055L471.026,308.784z"/>
	</g>
</g>
<g>
	<g>
		<path fill="#FFFFFF" d="M450.056,487.017c-4.909-17.324-22.461-29.217-31.218-28.124c-4.565,2.266-23.48,13.371-28.435,17.088
			c8.762-1.093,26.306,10.796,31.219,28.12c4.905,17.284,3.114,37.756,1.163,45.517c7.442-3.896,25.97-13.786,28.416-17.022
			C453.157,524.874,454.972,504.34,450.056,487.017z"/>
	</g>
	<g>
		<path fill="#CCBBBB" d="M422.287,461.307c-5.753,2.548-13.44,7.283-19.255,11.587c-0.434,0.319,0.021,0.944,0.471,0.674
			c6.271-3.774,11.394-6.725,19.195-11.482C423.127,461.822,422.76,461.097,422.287,461.307z"/>
		<path fill="#CCBBBB" d="M428.422,464.148c-5.75,2.554-13.445,7.288-19.261,11.591c-0.429,0.319,0.027,0.946,0.473,0.675
			c6.273-3.773,11.397-6.729,19.199-11.484C429.257,464.672,428.89,463.946,428.422,464.148z"/>
		<path fill="#CCBBBB" d="M433.464,468.495c-5.755,2.553-13.449,7.284-19.266,11.591c-0.428,0.318,0.025,0.94,0.476,0.669
			c6.275-3.77,11.4-6.725,19.2-11.478C434.298,469.016,433.927,468.29,433.464,468.495z"/>
		<path fill="#CCBBBB" d="M444.057,483.632c-5.754,2.553-13.444,7.284-19.26,11.592c-0.429,0.319,0.021,0.945,0.473,0.673
			c6.273-3.773,11.399-6.729,19.199-11.482C444.893,484.156,444.524,483.426,444.057,483.632z"/>
		<path fill="#CCBBBB" d="M437.486,472.836c-5.754,2.55-13.441,7.281-19.257,11.587c-0.432,0.319,0.018,0.945,0.473,0.674
			c6.271-3.772,11.394-6.729,19.194-11.481C438.325,473.356,437.958,472.627,437.486,472.836z"/>
		<path fill="#CCBBBB" d="M440.976,477.957c-5.751,2.544-13.441,7.278-19.257,11.586c-0.429,0.316,0.022,0.945,0.471,0.674
			c6.271-3.777,11.401-6.729,19.197-11.482C441.814,478.473,441.446,477.747,440.976,477.957z"/>
		<path fill="#CCBBBB" d="M449.842,494.901c-5.753,2.547-13.445,7.283-19.261,11.59c-0.432,0.316,0.023,0.939,0.478,0.674
			c6.27-3.778,11.394-6.729,19.195-11.482C450.683,495.42,450.31,494.694,449.842,494.901z"/>
		<path fill="#CCBBBB" d="M446.765,489.221c-5.756,2.544-13.449,7.284-19.265,11.587c-0.43,0.319,0.025,0.944,0.479,0.673
			c6.27-3.773,11.395-6.725,19.196-11.482C447.598,489.736,447.231,489.011,446.765,489.221z"/>
		<path fill="#CCBBBB" d="M449.042,527.584c-5.75,2.545-13.445,7.285-19.261,11.588c-0.428,0.313,0.026,0.943,0.473,0.673
			c6.275-3.777,11.403-6.725,19.2-11.482C449.883,528.101,449.51,527.374,449.042,527.584z"/>
		<path fill="#CCBBBB" d="M449.042,520.317c-5.75,2.554-13.445,7.285-19.261,11.591c-0.428,0.319,0.026,0.939,0.473,0.67
			c6.275-3.771,11.403-6.726,19.2-11.479C449.883,520.842,449.51,520.111,449.042,520.317z"/>
	</g>
	<path fill="#FBC8B7" d="M459.882,490.557c0-1.689-6.095-9.889-9.55-10.615c-2.107-0.438-4.732-0.468-7.463-0.966
		c-2.371-0.433-2.41,0.966-0.538,2.597c2.229,1.941,6.847,2.778,6.847,2.778s-1.496,2.229,1.644,6.771
		C453.957,495.666,459.882,492.142,459.882,490.557z"/>
	<g>
		<path fill="#2D1D1B" d="M489.492,661.328c0.37-5.641,0.879-12.095,2.233-19.098c2.325-12.024,4.972-29.567-2.951-37.498
			c8.902-22.648,5.763-35.174,4.442-42.107c13.262-14.063,0.631-28.919-5.758-33.479c-3.372,4.165-23.467,12.403-23.59,12.91
			c-2.422,10.336-0.204,21.146,2.854,31.15c1.903,6.234,3.556,16.763,7.984,33.838c-2.064,8.49,0.277,21.35,1.133,30.967
			c0.604,6.696,0.397,14.311,1.6,21.489C479.373,661.705,483.047,663.781,489.492,661.328z"/>
		<path fill="#FAB8A4" d="M466.284,660.323c-4.544,1.801-5.843,3.441-4.618,6.356c1.801,4.29,6.375,6.944,10.433,7.792
			c6.112,1.269,10.695,9.717,17.228,2.982c1.67-1.723,0.196-6.266-0.377-8.649c0.114-1.662,0.42-5.632,0.543-7.477
			c-6.445,2.453-10.119,0.377-12.052-1.827c0.263,1.558,0.565,3.104,0.98,4.608C476.09,663.393,469.33,659.116,466.284,660.323z"/>
	</g>
	<path fill="#402B29" d="M489.002,668.002c0,0-3.821,1.372-6.279,2.154c-2.457,0.783-8.359,1.099-12.881-3.274
		c-3.507-3.403,1.888-5.746,1.888-5.746s-4.809-5.509-10.501-3.13c-2.641,1.101-4.216,6.896-2.712,9.479
		c1.604,2.754,4.933,5.693,7.486,6.341c2.555,0.642,7.6,2.351,9.531,3.516c3.552,2.146,9.585,5.841,13.643,1.928
		C493.234,675.355,489.002,668.002,489.002,668.002z"/>
	<path fill="#EDDCDA" d="M493.528,468.709c-5.916-2.121-13.114,1.251-13.412,7.323c-3.252,5.521-0.061,13.621,5.029,17.315
		c5.919,4.303,15.059-0.044,17.026-6.698C504.211,479.775,500.432,471.185,493.528,468.709z"/>
	<g>
		<path fill="#402B29" d="M472.605,574.719c17.551-4.389,15.587-28.264,9.226-32.561c-0.537-0.364-24.979-2.061-26.934,2.309
			c-6.112,13.646-11.771,22.925-17.001,36.92c-0.849,2.286-3.375,9.459-7.196,20.008c-1.889,2.729-2.677,4.545-0.952,8.663
			c3.677,8.78,7.479,21.219,10.536,29.094c1.5,3.875,6.047,15.216,9.357,24.093c2.317-0.893,5.514-2.87,10.114-5.011
			c-0.639-4.111-0.666-9.575-0.666-14.713c0-12.935-2.095-25.706-10.533-36.331C451.845,605.4,470.497,587.705,472.605,574.719z"/>
		<path fill="#FBC8B7" d="M451.95,669.347c0.228,0.586-1.862,9.825-2.737,12.428c-0.691,2.028-0.857,3.227-2.807,3.843
			c-4.027,0.245-4.225,0.94-5.159,2.965c-0.824,1.771,4.888,5.321,8.771,4.823c1.031-0.14,5.723-0.25,7.25-2.721
			c2.236-3.633-0.206-6.821,1.153-11.001c1.521-4.695,7.635-4.513,5.807-9.513c-0.551-1.489-2.194-4.5-2.938-5.765
			c-0.471-0.816-1.119-3.471-1.666-6.995c-4.319,2.011-8.319,3.62-10.498,4.456C450.175,664.678,451.154,667.284,451.95,669.347z"/>
	</g>
	<path fill="#FBC8B7" d="M492.911,478.718c-0.104-0.48-0.551-0.884-1.015-1.011c-6.979-1.92-8.601-5.692-9.813-12.012
		c-0.174-0.9-1.354-1.303-2.094-0.848c-3.694,2.282-7.504,3.944-11.684,5.082c3.914,11.683-3.174,14.175-6.248,18.818
		c-0.777,1.172,7.299,7.044,11.613,6.437c3.733-0.525,7.432-1.71,10.629-3.744C487.83,489.197,493.936,483.519,492.911,478.718z"/>
	<path fill="#FBC8B7" d="M482.994,451.939c-0.646-6.016-5.574-14.017-12.322-13.51c-6.868,0.517-11.538,10.712-12.075,15.461
		c-0.911,8.071-0.198,23.289,12.538,18.399C481.053,468.486,483.964,460.904,482.994,451.939z"/>
	<path fill="#4454A5" d="M493.585,440.033c-3.093-6.637-10.95-11.887-17.945-9.133c-2.951-2.772-7.367-3.905-11.324-3.354
		c-1.212,0.171-3.022,0.416-3.411,1.805c-0.008,0.044,0,0.08-0.008,0.124c-3.084-1.155-5.952-1.05-7.075,2.466
		c-1.129,3.532,1.354,6.559,4.67,8.456c-1.784,0.298-3.379,0.835-4.285,1.876c-2.037,2.339-0.621,6.271,1.339,7.91
		c3.248,2.719,8.604,5.237,13.013,2.894c-0.307,7.389,8.206,14.644,12.338,16.52c2.397-5.045,7.666-5.12,11.207-12.19
		C494.056,453.506,495.49,444.145,493.585,440.033z"/>
	<path fill="#FBC8B7" d="M467.752,456.326c0,0,5.098-3.494,5.902,1.474c0.805,4.967-4.04,6.677-4.04,6.677L467.752,456.326z"/>
	<path fill="#2D1D1B" d="M491.113,433.505c-4.218-1.849-6.956-2.123-10.567,0.579c-3.734,2.808-2.371,14.394,3.673,15.767
		c3.873,0.887,8.885-0.158,10.949-3.585C497.799,441.893,497.354,436.235,491.113,433.505z"/>
	<path fill="#4454A5" d="M532.368,457.494c2.064-2.772,2.453-6.707-0.254-9.445c-1.793-1.823-4.276-2.283-6.489-1.701
		c0.359-3.686-1.065-8.01-2.981-10.376c-4.565-5.647-12.111-6.357-18.486-4.005c-0.28-2.779-1.744-5.438-4.601-6.348
		c-2.209-0.708-4.503-0.049-6.043,1.447c-1.879-3.231-5.823-4.941-9.308-2.06c-3.245,2.685-2.419,7.294,0.86,9.077
		c-0.953,0.796-1.652,1.94-1.854,3.35c-0.455,3.2,1.749,5.482,4.399,6.732c-3.905,3.7-1.828,10.512,3.467,12.793
		c3.677,1.585,7.892,1.042,11.329-0.882c-0.118,1.793,0.058,3.563,1.102,5.124c0.709,1.054,1.601,1.924,2.799,2.419
		c-3.104,4.332-0.547,9.168,4.919,9.784c-0.297,4.504-1.377,6.278,1.518,10.561c3.297,4.87,13.107,5.753,17.55,1.005
		c2.253-2.404,2.843-5.37,2.151-8.072c0.429-0.085,0.866-0.2,1.33-0.375c2.925-1.103,5.413-3.717,6.218-6.761
		C541.497,464.053,537.392,459.305,532.368,457.494z"/>
	<path fill="#FFFFFF" d="M496.806,502.67c4.412-13.651,1.721-22.729-2.181-27.188c-1.604-1.836-5.413-5.622-9.57-1.876
		c1.351,6.219-9.38,8.208-17.163,8.208c-5.885,4.397-11.171,7.468-14.533,13.414c-3.568,6.296-5.274,12.697,2.326,17.288
		c-2.326,6.905,1.342,14.055-0.688,31.71c7.098,5.636,20.766,5.575,28.319,0.996c5.896-3.575,9.035-7.563,8.737-11.88
		c-1.957-4.195-4.817-5.181-4.6-10.397C487.726,516.355,494.783,508.922,496.806,502.67z"/>
	<g>
		<path fill="#402B29" d="M455.947,688.955c0.493-3.338,0.493-10.259,2.098-12.852c1.303-2.104,4.438-5.156,7.845-6.441
			c-2.273-3.633-4.601-5.256-4.601-5.256s-6.208,4.417-6.946,10.281c-0.739,5.862-0.679,13.313-4.824,13.812
			c-4.154,0.489-2.273-3.257-2.273-3.257s-6.865-3.332-7.644,3.331c-0.271,2.313,0.734,4.198,4.748,6.064
			c2.039,0.945,4.373,1.45,6.673,1.313C453.494,694.918,455.457,692.285,455.947,688.955z"/>
		<path fill="#2D1D1B" d="M460.297,680.948c0.467-3.363,9.217-5.345,5.768-11.023c-0.062-0.096-0.118-0.171-0.175-0.263
			c-3.407,1.285-6.542,4.337-7.845,6.441c-1.604,2.593-1.604,9.514-2.098,12.852c-0.49,3.33-2.453,5.963-4.925,6.995
			c2.227-0.141,4.416-0.893,6.245-2.477C460.975,690.265,459.83,684.309,460.297,680.948z"/>
	</g>
	<path fill="#FBC8B7" d="M454.21,491.031c-3.165,1.861-7.043,4.485-9.396,7.336c-3.043,3.683-6.7,6.97-9.375,10.963
		c-4.36-5.349-10.464-7.744-16.012-11.462c-1.829-1.224-3.77-3.505-4.937-5.526c-1.596-2.762,0.026-2.265,0.556-5.334
		c0.595-3.479,1.735-6.101,1.232-6.546c-1.631-1.448-4.224,1.421-5.806,4.841c-1.369-1.74-4.521-3.214-7.456-5.361
		c-3.703,5.493,3.035,12.712,7.123,18.46c5.027,7.071,13.502,15.271,18.783,22.039c2.747,3.522,4.207,5.21,7.539,3.706
		c4.378-1.984,6.567-2.431,14.944-8.175c6.136-4.212,9.777-5.808,13.792-12.436C469.614,496.252,457.809,488.914,454.21,491.031z"/>
	<path fill="#EDDCDA" d="M463.061,484.97c-8.925-3.322-17.346,7.289-19.567,14.928c-2.938,2.047,5.195,15.094,9.174,15.221
		c7.749,3.878,15.862,0.817,20.13-7.201C476.942,500.125,470.982,487.926,463.061,484.97z"/>
	<path fill="#FFFFFF" d="M443.493,499.897l-2.668,2.929c0,0-1.478,2.606,1.514,7.461c2.983,4.854,7.862,6.506,7.862,6.506
		l2.466-1.675c0,0-4.675-2.942-7.102-6.772C443.14,504.515,443.493,499.897,443.493,499.897z"/>
</g>
</svg>
