<?xml version="1.0" encoding="utf-8"?>
<!-- Generator: Adobe Illustrator 16.0.3, SVG Export Plug-In . SVG Version: 6.00 Build 0)  -->
<!DOCTYPE svg PUBLIC "-//W3C//DTD SVG 1.1//EN" "http://www.w3.org/Graphics/SVG/1.1/DTD/svg11.dtd">
<svg version="1.1" id="Layer_1" xmlns="http://www.w3.org/2000/svg" xmlns:xlink="http://www.w3.org/1999/xlink" x="0px" y="0px"
	 width="700px" height="532.559px" viewBox="0 0 700 532.559" enable-background="new 0 0 700 532.559" xml:space="preserve">
<path opacity="0.5" fill="#6F96CE" d="M642.059,371.935l35.756-19.004L469.23,242.435l-14.771,7.849l-165.668-87.763L43.425,292.867
	l117.654,63.44c-22.467,21.022-25.907,39.223-31.375,43.761c-19.213,15.956-48.063,27.221-46.987,38.485
	c1.076,11.266,1.972,22.53,24.472,17.832c19.1-3.982,98.199-49.772,121.679-63.528l73.216,39.48l30.075-15.982l154.702,83.417
	l197.953-105.193L642.059,371.935z"/>
<path opacity="0.5" fill="#6F96CE" d="M27.188,334.774c-7.837,7.254,0.837,18.656,8.044,25.003
	c13.398,11.799,30.308,3.114,54.584-7.743c17.12-7.656,18.673-18.229-5.387-28.167C60.37,313.928,44.208,319.01,27.188,334.774z"/>
<g>
	<g>
		<path fill="#FFE376" d="M494.379,481.104c0,0-32.617-12.628-43.482-18.402c-32.259-17.14-129.021-68.563-129.021-68.563
			l190.903-101.442c0,0,100.379,53.343,133.832,71.119c9.672,5.137,38.667,15.841,38.667,15.841L494.379,481.104z"/>
		<path fill="#4454A5" d="M489.896,433.302c0,0-63.395-25.891-84.585-37.15c-21.933-11.655-87.731-46.62-87.731-46.62
			l190.903-101.442c0,0,78.197,41.549,104.259,55.399c17.061,9.064,68.054,28.365,68.054,28.365L489.896,433.302z"/>
		<g>
			<path fill="#2D1D1B" d="M515.917,293.274c1.793,0.813,3.262,1.484,4.422,2.013c1.153,0.527,2.068,0.963,2.736,1.298
				c0.658,0.336,1.124,0.588,1.387,0.765c0.264,0.17,0.418,0.308,0.479,0.407c0.022,0.012-0.072,0.138-0.276,0.374
				c-0.196,0.241-0.424,0.501-0.668,0.786c-0.245,0.287-0.479,0.544-0.712,0.77c-0.222,0.227-0.353,0.348-0.389,0.363
				c-0.143,0.133-0.55,0.237-1.195,0.325c-0.656,0.088-1.434,0.165-2.342,0.237c-0.927,0.064-1.913,0.126-2.995,0.175
				c-1.075,0.056-2.086,0.095-3.023,0.11c-0.938,0.022-1.763,0.038-2.469,0.066c-0.705,0.021-1.171,0.044-1.398,0.06
				c-0.286,0.022-0.489,0.1-0.633,0.237c-0.132,0.138-0.12,0.225,0.03,0.275c0.389,0.138,0.843,0.308,1.368,0.521
				c0.525,0.209,1.028,0.468,1.494,0.765s0.861,0.639,1.195,1.023c0.322,0.385,0.466,0.804,0.412,1.26s-0.341,0.963-0.866,1.513
				c-0.525,0.556-1.387,1.148-2.594,1.792c-0.789,0.413-1.793,0.887-3.023,1.408c-1.232,0.528-2.559,1.041-3.993,1.541
				c-1.439,0.506-2.951,0.963-4.553,1.381c-1.591,0.418-3.126,0.726-4.62,0.917c-1.494,0.199-2.897,0.254-4.213,0.177
				c-1.32-0.077-2.433-0.358-3.347-0.841c-0.705-0.374-1.231-0.804-1.59-1.293c-0.364-0.484-0.597-0.957-0.688-1.424
				c-0.101-0.468-0.054-0.896,0.132-1.283c0.186-0.384,0.484-0.659,0.891-0.824s0.854-0.297,1.351-0.402
				c0.484-0.104,0.932-0.17,1.327-0.202c-0.061,0.939,0.238,1.634,0.872,2.073c0.634,0.445,1.482,0.692,2.54,0.753
				c1.058,0.062,2.265-0.027,3.609-0.264c1.345-0.237,2.695-0.545,4.021-0.929c1.339-0.38,2.588-0.804,3.784-1.266
				c1.188-0.462,2.144-0.891,2.897-1.293c0.783-0.412,1.184-0.792,1.171-1.144c-0.006-0.346-0.251-0.66-0.735-0.935
				c-0.483-0.275-1.128-0.513-1.942-0.721c-0.817-0.205-1.601-0.391-2.365-0.557c-0.766-0.165-1.435-0.296-1.99-0.406
				c-0.557-0.104-0.866-0.192-0.933-0.265c-0.096-0.153-0.102-0.347-0.019-0.577c0.096-0.231,0.21-0.457,0.358-0.693
				c0.15-0.23,0.287-0.439,0.438-0.599c0.137-0.171,0.244-0.27,0.316-0.309c0.239-0.182,0.789-0.341,1.655-0.49
				c0.867-0.147,1.895-0.274,3.083-0.39c1.189-0.11,2.469-0.221,3.855-0.314c1.387-0.099,2.7-0.187,3.961-0.258
				c1.268-0.077,2.403-0.143,3.414-0.214c1.009-0.066,1.738-0.144,2.181-0.221c0.168-0.011,0.292-0.071,0.388-0.181
				c0.084-0.116,0.072-0.193-0.023-0.249c-0.275-0.143-0.766-0.362-1.482-0.653c-0.717-0.298-1.422-0.627-2.121-0.996
				c-0.699-0.374-1.284-0.753-1.763-1.15c-0.479-0.39-0.598-0.747-0.347-1.066c-0.048-0.021,0.132-0.109,0.532-0.264
				c0.406-0.149,0.843-0.286,1.314-0.418c0.466-0.132,0.885-0.241,1.255-0.32C515.856,293.169,515.994,293.181,515.917,293.274z"/>
			<path fill="#2D1D1B" d="M537.609,302.988c1.202,0.632,1.733,1.451,1.585,2.446c-0.145,1.002-0.76,2.096-1.848,3.284
				c-1.087,1.188-2.546,2.409-4.375,3.675c-1.834,1.259-3.884,2.47-6.137,3.624c-2.253,1.161-4.59,2.212-7.01,3.163
				c-2.414,0.946-4.769,1.7-7.04,2.261c-2.271,0.556-4.363,0.868-6.263,0.935c-1.9,0.061-3.431-0.214-4.584-0.824
				c-1.32-0.705-1.918-1.563-1.816-2.581c0.101-1.017,0.711-2.117,1.822-3.289c1.111-1.176,2.617-2.376,4.519-3.603
				c1.9-1.231,3.991-2.408,6.293-3.542c2.301-1.133,4.69-2.156,7.177-3.074c2.475-0.919,4.864-1.65,7.152-2.2
				c2.277-0.556,4.346-0.875,6.204-0.962C535.147,302.212,536.581,302.438,537.609,302.988z M505.614,319.132
				c0.944,0.51,2.414,0.572,4.393,0.182c1.972-0.392,4.129-1.04,6.472-1.965c2.342-0.918,4.709-2.002,7.1-3.239
				c2.39-1.243,4.481-2.47,6.286-3.68c1.812-1.204,3.144-2.294,4.004-3.272c0.873-0.979,0.957-1.65,0.263-2.014
				c-0.704-0.38-1.983-0.341-3.836,0.109c-1.853,0.457-3.944,1.145-6.257,2.08c-2.319,0.935-4.691,2.013-7.117,3.234
				c-2.427,1.227-4.578,2.419-6.455,3.586c-1.876,1.166-3.298,2.211-4.279,3.13C505.213,318.207,505.022,318.823,505.614,319.132z"
				/>
			<path fill="#2D1D1B" d="M537.681,326.408c-1.332,0.71-2.939,1.337-4.833,1.869c-1.896,0.54-3.795,0.958-5.709,1.26
				c-1.911,0.298-3.656,0.457-5.234,0.462c-1.583,0.007-2.713-0.17-3.4-0.533c-0.854-0.456-1.494-0.968-1.912-1.534
				s-0.615-1.16-0.598-1.771c0.03-0.61,0.293-1.221,0.807-1.831c0.515-0.61,1.297-1.194,2.343-1.749
				c0.161-0.082,0.316-0.082,0.479,0c0.155,0.083,0.316,0.203,0.472,0.352c0.155,0.154,0.287,0.308,0.4,0.474
				c0.108,0.158,0.191,0.274,0.264,0.347c-0.909,1.11-1.352,1.969-1.309,2.579c0.047,0.616,0.411,1.034,1.104,1.265
				c0.694,0.231,1.638,0.298,2.827,0.198c1.178-0.093,2.433-0.313,3.747-0.655c1.327-0.335,2.629-0.747,3.92-1.242
				c1.291-0.49,2.427-1.018,3.39-1.579c0.984-0.583,1.505-1.166,1.535-1.754c0.035-0.589-0.252-1.111-0.86-1.573
				c-0.598-0.457-1.411-0.819-2.45-1.095c-1.028-0.27-2.092-0.385-3.191-0.347c-0.119-0.065-0.216-0.165-0.275-0.303
				c-0.059-0.138-0.12-0.291-0.191-0.468l-0.215-0.582c0.096-0.154,0.55-0.456,1.345-0.892c0.807-0.439,1.774-0.93,2.892-1.479
				c1.131-0.544,2.349-1.116,3.676-1.716c1.314-0.594,2.558-1.139,3.724-1.628c1.165-0.49,2.156-0.886,3-1.188
				c0.83-0.296,1.369-0.44,1.583-0.429c0.467,0.038,0.956,0.121,1.482,0.242c0.526,0.126,1.159,0.346,1.894,0.671
				c0.736,0.324,1.632,0.759,2.685,1.32c1.052,0.56,2.349,1.297,3.896,2.222c-0.023,0.061-0.101,0.209-0.251,0.445
				c-0.148,0.23-0.341,0.468-0.585,0.698c-0.239,0.236-0.532,0.445-0.866,0.633c-0.329,0.188-0.7,0.274-1.118,0.265
				c-0.18-0.027-0.526-0.133-1.004-0.303c-0.489-0.17-1.028-0.38-1.638-0.633c-0.597-0.253-1.23-0.527-1.895-0.825
				c-0.657-0.297-1.273-0.571-1.847-0.83c-0.574-0.254-1.063-0.457-1.47-0.622c-0.4-0.159-0.634-0.259-0.676-0.28
				c-0.077-0.044-0.305-0.033-0.681,0.027c-0.376,0.055-0.663,0.121-0.849,0.198c-0.998,0.473-1.925,0.908-2.803,1.293
				c-0.873,0.385-1.787,0.809-2.749,1.265c-0.162,0.088-0.27,0.226-0.335,0.418c-0.071,0.193,0,0.309,0.216,0.353
				c1.912,0.461,3.311,1.05,4.213,1.771s1.368,1.484,1.398,2.3c0.029,0.813-0.335,1.649-1.094,2.514
				C540.167,324.862,539.093,325.665,537.681,326.408z"/>
			<path fill="#2D1D1B" d="M561.442,332.222c0.012,0.148-0.071,0.313-0.245,0.495c-0.179,0.187-0.4,0.357-0.688,0.522
				c-0.274,0.159-0.58,0.319-0.902,0.479c-0.316,0.16-0.615,0.292-0.867,0.402c-0.334,0.099-0.77,0.076-1.313-0.056
				c-0.557-0.138-1.124-0.318-1.71-0.539c-0.573-0.226-1.123-0.456-1.637-0.693c-0.508-0.236-0.86-0.401-1.059-0.506
				c-0.126-0.039-0.328-0.039-0.603-0.012c-0.275,0.028-0.479,0.078-0.598,0.149c-0.466,0.242-0.896,0.494-1.304,0.765
				c-0.406,0.27-0.819,0.533-1.243,0.797c-0.418,0.259-0.86,0.507-1.333,0.743c-0.466,0.236-0.974,0.44-1.522,0.599
				c-0.191,0-0.419-0.026-0.682-0.082c-0.275-0.06-0.538-0.126-0.801-0.22c-0.275-0.088-0.496-0.192-0.682-0.308
				c-0.173-0.11-0.275-0.226-0.299-0.341c0.048-0.105,0.312-0.33,0.766-0.655c0.447-0.335,0.955-0.692,1.506-1.072
				c0.549-0.386,1.063-0.731,1.554-1.046c0.49-0.313,0.813-0.511,0.98-0.599c0.095-0.049,0.166-0.159,0.215-0.324
				c0.035-0.171,0-0.27-0.132-0.309c-0.669-0.318-1.326-0.649-1.984-0.995c-0.633-0.342-1.256-0.704-1.853-1.095
				c-0.275-0.039-0.364-0.153-0.281-0.357c0.078-0.198,0.258-0.413,0.526-0.654c0.275-0.231,0.579-0.451,0.914-0.655
				c0.335-0.203,0.604-0.324,0.801-0.352c0.204,0,0.575,0.088,1.136,0.258c0.55,0.177,1.123,0.38,1.722,0.605
				c0.585,0.231,1.135,0.451,1.625,0.654c0.484,0.21,0.789,0.348,0.908,0.406c0.156,0.05,0.431,0.05,0.825,0
				c0.395-0.055,0.657-0.131,0.8-0.23c0.383-0.208,0.837-0.478,1.353-0.813c0.507-0.336,1.051-0.661,1.625-0.979
				c0.572-0.318,1.135-0.604,1.697-0.863c0.562-0.259,1.075-0.418,1.564-0.468c0.24-0.05,0.496-0.032,0.784,0.05
				c0.286,0.082,0.531,0.209,0.747,0.369c0.202,0.165,0.346,0.352,0.43,0.571c0.077,0.214,0.048,0.44-0.096,0.677
				c-0.497,0.467-1.219,0.968-2.151,1.507c-0.944,0.539-1.793,1.04-2.558,1.502c-0.102,0.05-0.155,0.149-0.191,0.291
				c-0.018,0.143,0.036,0.231,0.168,0.265c0.775,0.341,1.553,0.66,2.337,0.956C560.475,331.358,561.06,331.743,561.442,332.222z"/>
			<path fill="#2D1D1B" d="M572.558,344.943c-1.332,0.711-2.939,1.332-4.84,1.871c-1.889,0.539-3.789,0.951-5.701,1.254
				c-1.913,0.303-3.657,0.457-5.235,0.468c-1.584,0.005-2.719-0.171-3.406-0.534c-0.849-0.456-1.495-0.968-1.906-1.539
				c-0.425-0.568-0.616-1.156-0.592-1.767c0.023-0.615,0.286-1.221,0.807-1.836c0.508-0.612,1.284-1.188,2.33-1.744
				c0.162-0.088,0.329-0.094,0.484-0.006c0.155,0.082,0.316,0.203,0.473,0.357c0.155,0.148,0.286,0.303,0.394,0.468
				c0.114,0.159,0.197,0.28,0.263,0.347c-0.914,1.111-1.344,1.969-1.302,2.585c0.047,0.61,0.412,1.034,1.105,1.26
				c0.698,0.23,1.638,0.297,2.82,0.203c1.184-0.099,2.432-0.318,3.766-0.654c1.314-0.341,2.617-0.753,3.907-1.243
				c1.291-0.495,2.427-1.023,3.383-1.584c0.991-0.577,1.507-1.167,1.543-1.755c0.035-0.589-0.253-1.11-0.861-1.573
				c-0.604-0.456-1.41-0.825-2.45-1.089c-1.027-0.275-2.091-0.391-3.197-0.353c-0.119-0.064-0.209-0.165-0.274-0.302
				c-0.055-0.138-0.126-0.292-0.187-0.462l-0.215-0.59c0.096-0.153,0.539-0.45,1.345-0.891c0.802-0.439,1.764-0.929,2.893-1.473
				c1.13-0.552,2.349-1.123,3.664-1.717c1.326-0.601,2.569-1.145,3.729-1.634c1.171-0.484,2.163-0.886,3-1.183
				c0.837-0.303,1.368-0.445,1.589-0.435c0.467,0.039,0.956,0.122,1.482,0.242c0.526,0.126,1.159,0.346,1.895,0.671
				s1.632,0.765,2.683,1.32c1.052,0.561,2.35,1.304,3.886,2.222c-0.012,0.066-0.09,0.209-0.239,0.445
				c-0.148,0.231-0.341,0.469-0.586,0.699c-0.245,0.236-0.531,0.445-0.865,0.632c-0.33,0.192-0.702,0.281-1.112,0.265
				c-0.188-0.028-0.531-0.132-1.01-0.302c-0.491-0.171-1.035-0.38-1.64-0.634c-0.597-0.247-1.235-0.522-1.888-0.825
				c-0.668-0.296-1.278-0.571-1.853-0.825c-0.572-0.258-1.063-0.461-1.47-0.627c-0.406-0.165-0.634-0.258-0.675-0.28
				c-0.078-0.039-0.306-0.027-0.681,0.027c-0.378,0.061-0.664,0.127-0.85,0.198c-0.998,0.479-1.93,0.907-2.802,1.293
				c-0.873,0.385-1.788,0.809-2.749,1.271c-0.161,0.083-0.275,0.225-0.342,0.412c-0.065,0.192,0.007,0.309,0.222,0.353
				c1.912,0.462,3.317,1.05,4.214,1.771c0.901,0.72,1.367,1.484,1.392,2.299c0.035,0.819-0.328,1.655-1.093,2.508
				C575.045,343.394,573.956,344.196,572.558,344.943z"/>
			<path fill="#2D1D1B" d="M596.773,336.243c1.793,0.813,3.268,1.484,4.42,2.013c1.159,0.527,2.069,0.963,2.737,1.298
				c0.66,0.33,1.125,0.589,1.388,0.759c0.264,0.177,0.426,0.313,0.478,0.413c0.025,0.011-0.071,0.138-0.273,0.374
				c-0.197,0.242-0.419,0.5-0.665,0.786c-0.244,0.286-0.484,0.544-0.711,0.77c-0.228,0.226-0.358,0.348-0.394,0.363
				c-0.143,0.126-0.542,0.237-1.195,0.324c-0.652,0.089-1.436,0.165-2.354,0.231c-0.909,0.071-1.9,0.132-2.975,0.188
				c-1.078,0.05-2.088,0.082-3.027,0.104c-0.941,0.017-1.76,0.04-2.466,0.067c-0.712,0.021-1.177,0.037-1.404,0.061
				c-0.286,0.021-0.49,0.098-0.627,0.235c-0.139,0.138-0.127,0.226,0.028,0.275c0.384,0.132,0.838,0.308,1.37,0.523
				c0.53,0.208,1.026,0.461,1.491,0.764c0.468,0.297,0.861,0.638,1.192,1.023c0.322,0.379,0.465,0.803,0.415,1.259
				c-0.052,0.457-0.34,0.963-0.87,1.514c-0.526,0.556-1.387,1.149-2.595,1.792c-0.782,0.413-1.793,0.887-3.018,1.408
				c-1.224,0.522-2.563,1.04-3.997,1.54c-1.435,0.501-2.953,0.957-4.543,1.381c-1.595,0.418-3.131,0.721-4.631,0.919
				c-1.488,0.192-2.898,0.253-4.22,0.176c-1.32-0.083-2.432-0.357-3.34-0.842c-0.705-0.373-1.231-0.803-1.59-1.287
				c-0.358-0.489-0.592-0.963-0.681-1.43c-0.103-0.469-0.061-0.896,0.132-1.282c0.185-0.385,0.477-0.659,0.89-0.824
				c0.406-0.166,0.854-0.297,1.344-0.401c0.485-0.104,0.934-0.177,1.326-0.204c-0.053,0.94,0.235,1.635,0.873,2.073
				c0.635,0.44,1.482,0.694,2.541,0.754c1.058,0.061,2.265-0.027,3.614-0.264c1.346-0.237,2.69-0.545,4.028-0.929
				c1.327-0.381,2.582-0.804,3.777-1.266c1.184-0.463,2.145-0.892,2.897-1.293c0.783-0.412,1.167-0.792,1.167-1.145
				c0-0.346-0.241-0.659-0.729-0.936c-0.486-0.274-1.136-0.517-1.948-0.72c-0.814-0.208-1.603-0.396-2.367-0.556
				c-0.765-0.165-1.435-0.303-1.983-0.407c-0.562-0.109-0.873-0.191-0.933-0.264c-0.108-0.153-0.108-0.347-0.018-0.578
				c0.09-0.226,0.208-0.462,0.352-0.698c0.156-0.23,0.293-0.429,0.438-0.6c0.137-0.164,0.245-0.264,0.31-0.297
				c0.245-0.181,0.796-0.347,1.668-0.494c0.86-0.149,1.89-0.275,3.084-0.392c1.188-0.115,2.468-0.22,3.849-0.313
				c1.387-0.1,2.707-0.187,3.969-0.258c1.266-0.071,2.4-0.149,3.409-0.215c1.011-0.072,1.742-0.144,2.183-0.219
				c0.163-0.012,0.293-0.079,0.384-0.188c0.084-0.11,0.077-0.192-0.025-0.241c-0.261-0.144-0.764-0.363-1.476-0.654
				c-0.724-0.298-1.429-0.628-2.12-1.002c-0.701-0.368-1.279-0.747-1.764-1.145c-0.484-0.396-0.598-0.747-0.348-1.066
				c-0.049-0.021,0.133-0.115,0.532-0.264c0.406-0.149,0.838-0.291,1.309-0.424c0.472-0.133,0.891-0.236,1.254-0.318
				C596.713,336.138,596.855,336.149,596.773,336.243z"/>
			<path fill="#2D1D1B" d="M586.375,354.669c0.944-0.501,2.156-0.946,3.644-1.331c1.489-0.391,3.001-0.682,4.53-0.87
				c1.529-0.191,2.952-0.274,4.28-0.246c1.318,0.027,2.283,0.203,2.896,0.527c0.072,0.038,0.15,0.026,0.235-0.033
				c0.083-0.055,0.119-0.11,0.106-0.148c-0.071-0.176-0.014-0.456,0.169-0.853c0.172-0.391,0.415-0.809,0.75-1.26
				c0.331-0.445,0.73-0.896,1.186-1.348c0.455-0.45,0.955-0.819,1.517-1.116c0.812-0.429,1.841-0.83,3.085-1.193
				c1.24-0.358,2.504-0.633,3.8-0.809c1.289-0.182,2.517-0.248,3.684-0.204c1.158,0.045,2.078,0.247,2.767,0.617
				c0.606,0.324,1.12,0.742,1.546,1.265c0.419,0.511,0.669,1.066,0.766,1.649c0.095,0.589-0.035,1.188-0.39,1.793
				c-0.363,0.605-1.017,1.161-1.964,1.666c-0.815,0.431-1.712,0.854-2.687,1.271c-0.978,0.413-2.014,0.781-3.104,1.105
				c-1.095,0.319-2.231,0.562-3.413,0.737c-1.172,0.171-2.307,0.226-3.406,0.159c-0.02,0.892-0.384,1.827-1.088,2.8
				c-0.706,0.974-1.895,1.904-3.558,2.783c-1.21,0.644-2.753,1.232-4.644,1.771c-1.894,0.533-3.842,0.946-5.842,1.231
				c-2.009,0.287-3.904,0.396-5.667,0.341c-1.773-0.06-3.137-0.356-4.081-0.896c-0.901-0.505-1.44-1.127-1.631-1.858
				c-0.204-0.722-0.097-1.507,0.334-2.338c0.418-0.83,1.147-1.693,2.181-2.585C583.41,356.412,584.738,355.538,586.375,354.669z
				 M586.088,362.732c0.729,0.391,1.732,0.545,2.982,0.462c1.247-0.078,2.521-0.275,3.819-0.589c1.302-0.318,2.52-0.682,3.667-1.095
				c1.149-0.412,1.997-0.765,2.553-1.062c0.591-0.309,1.136-0.693,1.655-1.149c0.514-0.451,0.91-0.924,1.212-1.408
				c0.295-0.484,0.445-0.951,0.445-1.402c-0.008-0.446-0.212-0.836-0.604-1.145c-0.221-0.297-0.776-0.527-1.65-0.698
				c-0.88-0.171-1.899-0.242-3.059-0.226c-1.173,0.027-2.391,0.154-3.653,0.402c-1.271,0.24-2.406,0.638-3.417,1.171
				c-1.01,0.539-1.948,1.105-2.802,1.705c-0.868,0.599-1.515,1.199-1.949,1.799c-0.441,0.594-0.64,1.172-0.574,1.721
				C584.774,361.774,585.228,362.275,586.088,362.732z M616.25,351.264c0.335-0.197,0.555-0.456,0.662-0.765
				c0.107-0.303,0.12-0.611,0.036-0.912c-0.085-0.303-0.228-0.589-0.419-0.848c-0.198-0.258-0.406-0.451-0.633-0.566
				c-0.43-0.23-0.998-0.386-1.696-0.462c-0.694-0.072-1.422-0.072-2.201,0c-0.777,0.076-1.566,0.226-2.377,0.451
				c-0.813,0.226-1.566,0.517-2.248,0.88c-0.328,0.175-0.646,0.483-0.945,0.93c-0.309,0.445-0.536,0.918-0.714,1.413
				c-0.176,0.495-0.277,0.952-0.299,1.37c-0.04,0.423,0.059,0.687,0.278,0.803c0.663,0.352,1.514,0.468,2.554,0.341
				c1.046-0.121,2.084-0.347,3.153-0.665c1.064-0.313,2.052-0.671,2.965-1.066C615.285,351.771,615.908,351.473,616.25,351.264z"/>
		</g>
		<g>
			<path fill="#2D1D1B" d="M449.402,372.313c1.063-0.572,2.438-1.073,4.124-1.513c1.679-0.434,3.388-0.765,5.121-0.979
				c1.728-0.215,3.342-0.308,4.835-0.28c1.494,0.027,2.582,0.23,3.275,0.6c0.083,0.044,0.166,0.027,0.268-0.039
				c0.103-0.061,0.139-0.122,0.126-0.17c-0.083-0.199-0.018-0.518,0.181-0.957c0.196-0.446,0.482-0.92,0.86-1.425
				c0.37-0.513,0.812-1.018,1.326-1.53c0.52-0.505,1.088-0.924,1.709-1.259c0.92-0.49,2.092-0.936,3.49-1.347
				c1.41-0.408,2.845-0.717,4.303-0.919c1.458-0.204,2.845-0.275,4.159-0.226c1.315,0.049,2.354,0.28,3.132,0.692
				c0.688,0.369,1.267,0.842,1.745,1.431c0.478,0.582,0.764,1.204,0.872,1.87c0.102,0.664-0.041,1.336-0.448,2.024
				c-0.4,0.682-1.147,1.309-2.218,1.875c-0.92,0.489-1.929,0.974-3.029,1.44c-1.112,0.474-2.276,0.887-3.52,1.249
				c-1.225,0.363-2.516,0.638-3.843,0.837c-1.332,0.192-2.623,0.252-3.861,0.181c-0.022,1.007-0.436,2.057-1.225,3.162
				c-0.813,1.101-2.151,2.151-4.027,3.151c-1.362,0.721-3.12,1.388-5.247,1.997c-2.14,0.606-4.339,1.073-6.609,1.392
				c-2.266,0.325-4.399,0.451-6.406,0.386c-2.009-0.066-3.538-0.402-4.613-1.007c-1.011-0.577-1.621-1.281-1.848-2.101
				c-0.221-0.82-0.09-1.705,0.383-2.646c0.472-0.94,1.297-1.914,2.469-2.921C446.056,374.282,447.562,373.293,449.402,372.313z
				 M449.086,381.422c0.831,0.439,1.949,0.616,3.365,0.528c1.409-0.094,2.855-0.313,4.32-0.671c1.47-0.357,2.851-0.765,4.152-1.232
				c1.292-0.467,2.248-0.869,2.881-1.199c0.658-0.352,1.279-0.791,1.866-1.298c0.572-0.518,1.038-1.051,1.367-1.595
				c0.341-0.545,0.509-1.073,0.496-1.584c0-0.512-0.221-0.946-0.669-1.298c-0.251-0.33-0.886-0.595-1.877-0.788
				c-0.979-0.197-2.139-0.28-3.454-0.252c-1.319,0.022-2.695,0.17-4.124,0.451c-1.434,0.275-2.724,0.715-3.859,1.325
				c-1.148,0.605-2.205,1.249-3.174,1.925c-0.975,0.682-1.703,1.353-2.205,2.03c-0.49,0.676-0.705,1.326-0.64,1.953
				S448.118,380.904,449.086,381.422z M483.18,368.463c0.37-0.23,0.621-0.517,0.754-0.863c0.119-0.346,0.131-0.692,0.035-1.034
				c-0.097-0.346-0.258-0.665-0.478-0.956c-0.223-0.298-0.454-0.507-0.712-0.644c-0.484-0.265-1.13-0.435-1.906-0.518
				c-0.795-0.083-1.625-0.089-2.492,0c-0.878,0.083-1.774,0.253-2.695,0.506c-0.92,0.254-1.77,0.588-2.546,1.001
				c-0.37,0.192-0.723,0.545-1.063,1.046c-0.334,0.506-0.61,1.039-0.813,1.6c-0.19,0.562-0.311,1.072-0.34,1.546
				c-0.03,0.473,0.077,0.776,0.328,0.908c0.741,0.396,1.698,0.527,2.881,0.385c1.171-0.138,2.36-0.391,3.562-0.748
				c1.195-0.357,2.319-0.765,3.359-1.211C482.092,369.03,482.797,368.694,483.18,368.463z"/>
			<path fill="#2D1D1B" d="M469.619,390.866c0.168,0.407,0.042,0.798-0.389,1.178c-0.43,0.373-0.979,0.703-1.636,0.979
				c-0.658,0.275-1.339,0.484-2.038,0.615c-0.7,0.138-1.22,0.193-1.56,0.177c-0.396-0.056-0.705-0.188-0.909-0.402
				c-0.215-0.208-0.322-0.439-0.316-0.692c0.006-0.254,0.113-0.518,0.328-0.792c0.222-0.275,0.538-0.517,0.974-0.716
				c0.473-0.219,1.005-0.438,1.598-0.648c0.597-0.214,1.152-0.368,1.684-0.456c0.532-0.088,0.998-0.088,1.399,0.006
				C469.159,390.212,469.447,390.459,469.619,390.866z M507.825,379.332c-1.542,0.819-3.479,1.523-5.803,2.117
				c-2.318,0.584-4.679,1.073-7.082,1.464c-2.39,0.391-4.673,0.715-6.837,0.973c-2.17,0.259-3.908,0.469-5.223,0.639
				c-1.242,0.159-2.438,0.533-3.598,1.116c-1.147,0.578-2.45,1.365-3.921,2.349c-0.334,0.176-0.668,0.242-1.021,0.188
				c-0.353-0.05-0.669-0.149-0.962-0.304c-0.286-0.153-0.526-0.34-0.717-0.56c-0.191-0.221-0.311-0.419-0.323-0.583
				c-0.048-0.298,0.144-0.645,0.573-1.051c0.419-0.396,1.04-0.831,1.864-1.293c0.813-0.468,1.817-0.946,3.001-1.43
				c1.194-0.484,2.51-0.931,3.943-1.342c0.479-0.138,1.31-0.299,2.475-0.479c1.166-0.176,2.498-0.379,3.969-0.589
				c1.482-0.214,3.048-0.439,4.709-0.671c1.661-0.236,3.238-0.489,4.757-0.765c1.506-0.274,2.874-0.561,4.087-0.853
				c1.214-0.296,2.141-0.609,2.762-0.939c0.406-0.215,0.86-0.512,1.381-0.887c0.508-0.373,0.955-0.764,1.333-1.171
				c0.369-0.407,0.633-0.787,0.776-1.139c0.143-0.358,0.035-0.633-0.323-0.819c-0.992-0.528-2.134-0.907-3.418-1.138
				c-1.279-0.231-2.534-0.381-3.777-0.457c-1.255-0.071-2.385-0.077-3.412-0.017c-1.022,0.06-1.787,0.115-2.276,0.171
				c-0.503,0.121-1.016,0.303-1.519,0.544c-0.501,0.241-1.028,0.474-1.554,0.698c-0.573,0.126-0.824,0.071-0.764-0.17
				c0.063-0.243,0.286-0.539,0.669-0.908c0.382-0.362,0.848-0.731,1.392-1.11c0.544-0.38,0.986-0.633,1.333-0.754
				c0.65-0.171,1.708-0.336,3.203-0.512c1.482-0.171,3.09-0.274,4.834-0.303c1.751-0.033,3.479,0.049,5.2,0.236
				c1.715,0.188,3.113,0.567,4.188,1.139c1.136,0.605,1.71,1.32,1.728,2.15c0.013,0.832-0.275,1.656-0.855,2.481
				c-0.585,0.824-1.345,1.595-2.282,2.31C509.391,378.386,508.565,378.941,507.825,379.332z"/>
		</g>
		<path fill="#2D1D1B" d="M521.169,352.507c-1.296-1.034-3.197,0.704-1.888,1.738c21.258,16.754,0.508,40.186-18.962,47.138
			c-15.902,5.677-36.269,8.394-52.255,1.782c-15.908-6.573-23.856-22.926-8.605-35.142c7.105-5.692,16.876-8.503,26.031-10.055
			c19.459-3.3,36.968,1.232,54.831,7.92c0.353,0.132,0.519-0.357,0.245-0.533c-20.988-13.531-53.559-14.598-76.039-3.372
			c-19.865,9.924-22.148,31.242-1.381,41.798c20.927,10.644,54.119,5.836,72.687-7.299
			C530.725,385.948,536.869,364.959,521.169,352.507z"/>
	</g>
	<g>
		<g>
			<g>
				<polygon fill="#402B29" points="524.511,269.095 298.394,389.249 62.202,261.895 286.25,142.873 				"/>
				<polygon fill="#4A3331" points="524.511,269.095 575.498,187.069 337.241,60.847 286.25,142.873 				"/>
				<polygon fill="#2D1D1B" points="521.6,260.718 566.45,188.57 339.913,68.575 295.062,140.729 				"/>
				<polygon fill="#6F96CE" points="516.926,249.189 544.984,206.22 334.375,93.822 306.321,136.791 				"/>
				<polygon fill="#392624" points="62.202,261.895 62.202,293.692 300.464,419.913 300.464,388.116 				"/>
				<polygon fill="#2D1D1B" points="524.511,269.095 300.464,388.116 300.464,419.913 542.235,290.227 591.095,211.682 
					575.498,187.069 				"/>
			</g>
			<g>
				<g>
					<path fill="#4454A5" d="M313.988,172.014l-4.542-0.209l-16.897-8.982c-3.49-1.853-9.642-1.617-13.673,0.522l-12.192,6.479
						l-3.415-0.159v4.218h0.039c-0.042,1.216,0.697,2.388,2.315,3.251l19.085,10.137c3.49,1.854,9.642,1.623,13.673-0.522
						l12.269-6.518c2.244-1.194,3.332-2.729,3.293-4.18h0.044V172.014z"/>
					<path fill="#4454A5" d="M284.708,183.234l-19.085-10.136c-3.489-1.859-3.047-5.126,0.983-7.272l12.269-6.518
						c4.031-2.14,10.183-2.376,13.673-0.523l19.084,10.143c3.491,1.854,3.048,5.121-0.983,7.266l-12.269,6.518
						C294.351,184.858,288.199,185.088,284.708,183.234z"/>
				</g>
				<g>
					<path fill="#5583C3" d="M354.503,194.929l-4.542-0.209l-16.898-8.981c-3.489-1.854-9.645-1.623-13.675,0.522l-12.188,6.474
						l-3.416-0.154v4.213l0.036,0.006c-0.041,1.215,0.697,2.387,2.319,3.245l19.082,10.143c3.49,1.854,9.646,1.617,13.676-0.522
						l12.265-6.518c2.241-1.194,3.329-2.734,3.293-4.187l0.048,0.006V194.929z"/>
					<path fill="#6F96CE" d="M325.221,206.148l-19.082-10.142c-3.49-1.854-3.05-5.126,0.98-7.267l12.27-6.518
						c4.03-2.146,10.186-2.376,13.675-0.522l19.085,10.137c3.49,1.859,3.048,5.126-0.986,7.272l-12.265,6.518
						C334.866,207.766,328.71,208.003,325.221,206.148z"/>
				</g>
				<g>
					<path fill="#5583C3" d="M396.754,217.843l-4.542-0.214l-16.895-8.976c-3.49-1.854-9.646-1.624-13.679,0.522l-12.186,6.473
						l-3.415-0.154v4.213h0.036c-0.042,1.221,0.697,2.388,2.315,3.25l19.083,10.143c3.489,1.854,9.645,1.617,13.679-0.522
						l12.269-6.523c2.241-1.188,3.329-2.728,3.286-4.18l0.049,0.005V217.843z"/>
					<path fill="#6F96CE" d="M367.472,229.063l-19.083-10.142c-3.49-1.854-3.048-5.126,0.987-7.267l12.263-6.518
						c4.033-2.144,10.188-2.381,13.679-0.522l19.082,10.137c3.49,1.854,3.048,5.126-0.98,7.266l-12.269,6.523
						C377.116,230.681,370.961,230.917,367.472,229.063z"/>
				</g>
				<g>
					<path fill="#5583C3" d="M439.603,240.752l-4.542-0.209l-16.896-8.976c-3.495-1.859-9.645-1.623-13.679,0.517l-12.186,6.479
						l-3.412-0.159v4.219h0.036c-0.048,1.221,0.693,2.387,2.319,3.25l19.075,10.137c3.489,1.859,9.646,1.623,13.679-0.517
						l12.27-6.523c2.241-1.188,3.329-2.728,3.286-4.18h0.049V240.752z"/>
					<path fill="#6F96CE" d="M410.319,251.973l-19.081-10.138c-3.49-1.854-3.049-5.126,0.985-7.266l12.263-6.523
						c4.034-2.14,10.184-2.376,13.679-0.522l19.082,10.142c3.49,1.854,3.048,5.126-0.979,7.267l-12.27,6.518
						C419.965,253.595,413.809,253.831,410.319,251.973z"/>
				</g>
				<g>
					<path fill="#4454A5" d="M482.45,263.666l-4.542-0.209l-16.894-8.982c-3.496-1.853-9.646-1.617-13.68,0.523l-12.185,6.479
						l-3.419-0.159v4.218h0.042c-0.047,1.216,0.693,2.388,2.313,3.251l19.081,10.136c3.489,1.854,9.645,1.624,13.673-0.522
						l12.274-6.518c2.242-1.194,3.33-2.729,3.287-4.18h0.048V263.666z"/>
					<path fill="#4454A5" d="M453.168,274.887l-19.081-10.137c-3.491-1.859-3.049-5.126,0.985-7.271l12.263-6.518
						c4.034-2.139,10.184-2.376,13.68-0.522l19.081,10.142c3.489,1.854,3.049,5.126-0.98,7.267l-12.274,6.518
						C462.813,276.509,456.657,276.74,453.168,274.887z"/>
				</g>
			</g>
			<g>
				<g>
					<path fill="#5583C3" d="M274.753,192.91l-4.542-0.215l-16.894-8.976c-3.493-1.853-9.646-1.623-13.677,0.522l-12.19,6.474
						l-3.416-0.155v4.214h0.039c-0.042,1.221,0.697,2.393,2.319,3.251l19.081,10.142c3.491,1.854,9.643,1.617,13.677-0.522
						l12.266-6.518c2.244-1.193,3.332-2.733,3.292-4.185l0.046,0.005V192.91z"/>
					<path fill="#6F96CE" d="M245.472,204.13l-19.081-10.143c-3.493-1.853-3.051-5.125,0.98-7.265l12.269-6.518
						c4.031-2.146,10.184-2.376,13.677-0.522l19.081,10.137c3.49,1.859,3.048,5.126-0.983,7.271l-12.266,6.518
						C255.115,205.748,248.963,205.984,245.472,204.13z"/>
				</g>
				<g>
					<path fill="#5583C3" d="M315.264,215.818l-4.539-0.208l-16.897-8.977c-3.49-1.854-9.645-1.623-13.675,0.522l-12.188,6.474
						l-3.416-0.159v4.219h0.037c-0.042,1.221,0.696,2.387,2.318,3.25l19.082,10.143c3.489,1.854,9.646,1.617,13.676-0.522
						l12.27-6.523c2.241-1.188,3.328-2.728,3.292-4.181l0.042,0.005V215.818z"/>
					<path fill="#6F96CE" d="M285.985,227.045l-19.082-10.143c-3.49-1.853-3.05-5.126,0.98-7.266l12.27-6.518
						c4.03-2.146,10.186-2.381,13.675-0.522l19.083,10.137c3.492,1.859,3.05,5.126-0.98,7.266l-12.27,6.524
						C295.63,228.662,289.474,228.898,285.985,227.045z"/>
				</g>
				<g>
					<path fill="#5583C3" d="M357.515,238.733l-4.536-0.208l-16.897-8.978c-3.49-1.859-9.645-1.622-13.676,0.517l-12.188,6.48
						l-3.416-0.159v4.218h0.036c-0.042,1.216,0.696,2.388,2.319,3.25l19.081,10.138c3.491,1.858,9.645,1.622,13.676-0.522
						l12.267-6.519c2.246-1.188,3.334-2.729,3.292-4.18h0.042V238.733z"/>
					<path fill="#6F96CE" d="M328.238,249.954l-19.081-10.138c-3.49-1.858-3.05-5.126,0.979-7.265l12.269-6.523
						c4.031-2.141,10.187-2.376,13.676-0.523l19.079,10.143c3.489,1.854,3.054,5.126-0.979,7.266l-12.267,6.518
						C337.883,251.577,331.729,251.807,328.238,249.954z"/>
				</g>
				<g>
					<path fill="#4454A5" d="M400.363,261.647l-4.536-0.209l-16.895-8.982c-3.489-1.854-9.645-1.617-13.679,0.522l-12.186,6.479
						l-3.417-0.159v4.218h0.036c-0.042,1.216,0.694,2.388,2.318,3.251l19.081,10.137c3.49,1.854,9.646,1.622,13.68-0.522
						l12.264-6.519c2.246-1.194,3.334-2.729,3.292-4.181h0.042V261.647z"/>
					<path fill="#4454A5" d="M371.086,272.868l-19.081-10.136c-3.493-1.86-3.048-5.126,0.98-7.272l12.269-6.518
						c4.034-2.14,10.189-2.376,13.679-0.523l19.076,10.142c3.49,1.854,3.048,5.127-0.979,7.266l-12.264,6.518
						C380.732,274.491,374.576,274.722,371.086,272.868z"/>
				</g>
				<g>
					<path fill="#4454A5" d="M443.211,284.562l-4.535-0.21l-16.894-8.982c-3.49-1.854-9.646-1.617-13.68,0.523l-12.186,6.479
						l-3.418-0.159v4.213l0.036,0.006c-0.042,1.215,0.692,2.387,2.318,3.245l19.081,10.143c3.49,1.854,9.646,1.617,13.681-0.522
						l12.262-6.518c2.247-1.194,3.334-2.728,3.293-4.18h0.041V284.562z"/>
					<path fill="#4454A5" d="M413.935,295.782l-19.081-10.142c-3.49-1.854-3.048-5.121,0.979-7.267l12.27-6.518
						c4.034-2.14,10.189-2.376,13.68-0.522l19.074,10.143c3.49,1.854,3.055,5.12-0.979,7.266l-12.262,6.518
						C423.58,297.405,417.425,297.636,413.935,295.782z"/>
				</g>
			</g>
			<g>
				<g>
					<path fill="#5583C3" d="M235.499,213.866l-4.542-0.208l-16.898-8.982c-3.49-1.854-9.646-1.617-13.674,0.522l-12.19,6.479
						l-3.416-0.159v4.219h0.036c-0.039,1.216,0.7,2.387,2.319,3.25l19.085,10.137c3.49,1.854,9.643,1.623,13.673-0.523l12.269-6.518
						c2.244-1.188,3.332-2.728,3.293-4.18h0.045V213.866z"/>
					<path fill="#6F96CE" d="M206.216,225.087l-19.082-10.137c-3.49-1.859-3.048-5.126,0.983-7.271l12.269-6.519
						c4.028-2.139,10.184-2.375,13.674-0.522l19.085,10.143c3.489,1.854,3.047,5.126-0.984,7.267l-12.269,6.518
						C215.861,226.709,209.709,226.941,206.216,225.087z"/>
				</g>
				<g>
					<path fill="#5583C3" d="M276.01,236.781l-4.539-0.209l-16.897-8.982c-3.493-1.853-9.645-1.617-13.675,0.522l-12.188,6.479
						l-3.418-0.16v4.214l0.039,0.005c-0.042,1.216,0.696,2.387,2.318,3.246l19.082,10.142c3.489,1.854,9.646,1.623,13.673-0.522
						l12.269-6.518c2.245-1.193,3.333-2.728,3.293-4.18h0.044V236.781z"/>
					<path fill="#6F96CE" d="M246.731,248.001l-19.082-10.143c-3.493-1.853-3.05-5.12,0.98-7.265l12.27-6.519
						c4.03-2.145,10.183-2.376,13.675-0.522l19.083,10.143c3.489,1.854,3.047,5.121-0.984,7.266l-12.269,6.518
						C256.376,249.618,250.22,249.855,246.731,248.001z"/>
				</g>
				<g>
					<path fill="#5583C3" d="M318.265,259.695l-4.54-0.215l-16.9-8.977c-3.491-1.853-9.642-1.622-13.673,0.523l-12.192,6.479
						l-3.416-0.159v4.213h0.039c-0.042,1.221,0.696,2.393,2.315,3.25l19.085,10.142c3.49,1.854,9.643,1.617,13.674-0.523
						l12.269-6.518c2.244-1.193,3.332-2.733,3.292-4.186l0.046,0.005V259.695z"/>
					<path fill="#6F96CE" d="M288.984,270.915l-19.085-10.143c-3.489-1.854-3.046-5.126,0.984-7.266l12.269-6.518
						c4.031-2.146,10.182-2.376,13.673-0.522l19.084,10.137c3.49,1.859,3.048,5.126-0.983,7.271l-12.269,6.518
						C298.627,272.532,292.474,272.769,288.984,270.915z"/>
				</g>
				<g>
					<path fill="#4454A5" d="M361.112,282.603l-4.542-0.208l-16.894-8.977c-3.494-1.859-9.648-1.622-13.676,0.523l-12.191,6.474
						l-3.415-0.154v4.213h0.039c-0.042,1.221,0.696,2.387,2.315,3.25l19.084,10.144c3.49,1.854,9.643,1.617,13.673-0.523
						l12.271-6.523c2.242-1.188,3.33-2.728,3.287-4.18l0.048,0.005V282.603z"/>
					<path fill="#4454A5" d="M331.833,293.824l-19.084-10.138c-3.49-1.854-3.047-5.126,0.983-7.266L326,269.903
						c4.031-2.145,10.183-2.381,13.676-0.522l19.082,10.137c3.49,1.854,3.048,5.126-0.98,7.266l-12.271,6.523
						C341.475,295.446,335.322,295.683,331.833,293.824z"/>
				</g>
				<g>
					<path fill="#4454A5" d="M403.961,305.518l-4.542-0.209l-16.9-8.981c-3.489-1.854-9.639-1.617-13.673,0.521l-12.191,6.479
						l-3.412-0.158v4.218h0.041c-0.047,1.216,0.693,2.388,2.313,3.251l19.082,10.137c3.489,1.86,9.645,1.623,13.673-0.517
						l12.274-6.523c2.241-1.194,3.329-2.729,3.287-4.181h0.048V305.518z"/>
					<path fill="#4454A5" d="M374.679,316.738l-19.082-10.138c-3.49-1.857-3.048-5.126,0.986-7.271l12.263-6.518
						c4.034-2.14,10.184-2.376,13.673-0.523l19.088,10.143c3.49,1.854,3.048,5.126-0.98,7.267l-12.274,6.519
						C384.323,318.361,378.168,318.598,374.679,316.738z"/>
				</g>
			</g>
			<g>
				<g>
					<path fill="#5583C3" d="M196.263,234.762l-4.542-0.209l-16.897-8.982c-3.49-1.854-9.643-1.617-13.674,0.522l-12.191,6.479
						l-3.416-0.16v4.214l0.039,0.005c-0.042,1.216,0.696,2.387,2.315,3.245l19.084,10.142c3.49,1.854,9.643,1.624,13.674-0.522
						l12.269-6.518c2.244-1.193,3.332-2.729,3.292-4.18h0.045V234.762z"/>
					<path fill="#6F96CE" d="M166.982,245.982l-19.084-10.143c-3.49-1.854-3.047-5.121,0.983-7.266l12.269-6.518
						c4.031-2.14,10.184-2.376,13.674-0.522l19.085,10.142c3.489,1.854,3.047,5.121-0.983,7.266l-12.269,6.518
						C176.625,247.6,170.473,247.836,166.982,245.982z"/>
				</g>
				<g>
					<path fill="#5583C3" d="M236.774,257.676l-4.54-0.214l-16.897-8.976c-3.489-1.854-9.646-1.622-13.676,0.522l-12.188,6.475
						l-3.415-0.155v4.214h0.036c-0.042,1.221,0.696,2.393,2.319,3.25l19.082,10.142c3.489,1.854,9.645,1.617,13.675-0.522
						l12.27-6.518c2.241-1.193,3.329-2.733,3.29-4.186l0.044,0.005V257.676z"/>
					<path fill="#6F96CE" d="M207.495,268.896l-19.082-10.142c-3.494-1.854-3.051-5.126,0.98-7.266l12.269-6.518
						c4.03-2.146,10.187-2.376,13.676-0.523l19.082,10.137c3.49,1.859,3.048,5.126-0.983,7.266l-12.266,6.524
						C217.14,270.514,210.984,270.75,207.495,268.896z"/>
				</g>
				<g>
					<path fill="#5583C3" d="M279.028,280.584l-4.539-0.208l-16.897-8.977c-3.491-1.86-9.646-1.623-13.677,0.522l-12.188,6.474
						l-3.418-0.16v4.22h0.038c-0.041,1.22,0.697,2.386,2.316,3.25l19.084,10.143c3.49,1.853,9.642,1.617,13.677-0.522l12.265-6.524
						c2.244-1.188,3.332-2.728,3.293-4.18h0.045V280.584z"/>
					<path fill="#6F96CE" d="M249.749,291.805l-19.084-10.137c-3.49-1.854-3.048-5.126,0.983-7.266l12.269-6.524
						c4.031-2.139,10.186-2.376,13.677-0.518l19.081,10.138c3.489,1.854,3.048,5.126-0.983,7.265l-12.265,6.524
						C259.394,293.428,253.238,293.664,249.749,291.805z"/>
				</g>
				<g>
					<path fill="#4454A5" d="M364.723,326.414l-4.537-0.21l-16.899-8.981c-3.49-1.854-9.643-1.617-13.673,0.522l-12.188,6.479
						l-3.419-0.16v4.213l0.039,0.006c-0.042,1.216,0.696,2.387,2.316,3.246l19.084,10.143c3.491,1.853,9.644,1.622,13.674-0.523
						l12.269-6.518c2.246-1.193,3.335-2.728,3.292-4.18h0.043V326.414z"/>
					<path fill="#4454A5" d="M335.445,337.634l-19.084-10.142c-3.49-1.854-3.047-5.121,0.983-7.267l12.27-6.519
						c4.03-2.139,10.183-2.375,13.673-0.521l19.082,10.142c3.489,1.854,3.047,5.121-0.98,7.268l-12.269,6.518
						C345.091,339.257,338.936,339.488,335.445,337.634z"/>
				</g>
			</g>
			<g>
				<g>
					<path fill="#5583C3" d="M157.358,255.657l-4.539-0.214l-16.897-8.976c-3.49-1.854-9.646-1.623-13.676,0.522l-12.188,6.474
						l-3.416-0.154v4.213h0.036c-0.042,1.221,0.695,2.393,2.319,3.25l19.081,10.143c3.49,1.854,9.646,1.617,13.677-0.522
						l12.269-6.518c2.241-1.194,3.329-2.733,3.29-4.186l0.044,0.006V255.657z"/>
					<path fill="#6F96CE" d="M128.079,266.877l-19.081-10.142c-3.491-1.854-3.051-5.125,0.979-7.266l12.269-6.518
						c4.031-2.145,10.186-2.376,13.676-0.522l19.081,10.137c3.491,1.859,3.051,5.126-0.979,7.272l-12.269,6.518
						C137.724,268.495,131.569,268.732,128.079,266.877z"/>
				</g>
				<g>
					<path fill="#5583C3" d="M197.873,278.566l-4.542-0.209l-16.894-8.977c-3.493-1.859-9.646-1.623-13.676,0.522l-12.191,6.474
						l-3.416-0.16v4.219h0.04c-0.042,1.22,0.696,2.387,2.315,3.25l19.084,10.138c3.49,1.858,9.642,1.622,13.673-0.518l12.269-6.523
						c2.244-1.188,3.332-2.728,3.293-4.18h0.045V278.566z"/>
					<path fill="#6F96CE" d="M168.593,289.787l-19.084-10.137c-3.49-1.854-3.048-5.126,0.983-7.266l12.269-6.518
						c4.031-2.145,10.184-2.382,13.676-0.523l19.082,10.137c3.49,1.854,3.048,5.126-0.983,7.266l-12.269,6.524
						C178.235,291.409,172.083,291.646,168.593,289.787z"/>
				</g>
				<g>
					<path fill="#5583C3" d="M240.127,301.48l-4.542-0.209l-16.897-8.982c-3.49-1.853-9.643-1.617-13.674,0.523l-12.19,6.479
						l-3.416-0.159v4.219h0.039c-0.042,1.216,0.696,2.388,2.315,3.25l19.084,10.138c3.49,1.854,9.643,1.623,13.673-0.521
						l12.269-6.519c2.244-1.194,3.332-2.729,3.293-4.181h0.045V301.48z"/>
					<path fill="#6F96CE" d="M210.845,312.702l-19.082-10.139c-3.49-1.858-3.048-5.126,0.983-7.265l12.269-6.524
						c4.031-2.139,10.184-2.376,13.674-0.522l19.084,10.143c3.491,1.854,3.048,5.126-0.983,7.265l-12.269,6.518
						C220.49,314.324,214.337,314.555,210.845,312.702z"/>
				</g>
				<g>
					<path fill="#4454A5" d="M325.824,347.31l-4.542-0.215l-16.897-8.977c-3.49-1.854-9.643-1.623-13.676,0.522l-12.188,6.474
						l-3.415-0.154v4.214l0.039,0.006c-0.042,1.216,0.692,2.387,2.316,3.245l19.081,10.142c3.493,1.854,9.646,1.617,13.677-0.522
						l12.269-6.518c2.244-1.193,3.332-2.733,3.293-4.186l0.044,0.006V347.31z"/>
					<path fill="#4454A5" d="M296.541,358.53l-19.081-10.143c-3.491-1.854-3.048-5.127,0.982-7.267l12.267-6.518
						c4.033-2.146,10.186-2.376,13.676-0.522l19.084,10.137c3.49,1.859,3.048,5.126-0.983,7.271l-12.269,6.518
						C306.187,360.146,300.034,360.383,296.541,358.53z"/>
				</g>
			</g>
			<g>
				<path fill="#5583C3" d="M317.338,303.29l-16.897-8.977c-3.494-1.859-9.646-1.622-13.677,0.517c0,0-34.871,18.756-38.902,20.896
					l-12.19,6.479l-3.416-0.159v4.213l0.036,0.007c-0.038,1.215,0.696,2.387,2.319,3.251l19.084,10.136
					c3.49,1.854,9.643,1.623,13.674-0.521l8.641-4.594l0,0l0.009-0.005l3.619-1.92c0.071-0.038,0.12-0.082,0.188-0.121L314,314.131
					l4.539-2.414c2.244-1.188,3.332-2.729,3.293-4.18h0.044v-4.038L317.338,303.29z"/>
				<path fill="#6F96CE" d="M319.522,300.413l-19.081-10.142c-3.494-1.854-9.646-1.617-13.677,0.522l-6.221,3.307l-0.024,0.016
					l-44.925,24.092c-4.031,2.145-4.472,5.412-0.983,7.267l19.084,10.143c3.49,1.854,9.643,1.622,13.674-0.523l51.169-27.414
					C322.57,305.54,323.013,302.267,319.522,300.413z"/>
			</g>
		</g>
		<g>
			<path fill="#392624" d="M162.064,233.733l2.88,1.534l8.859-4.708l-2.486-1.32l2.199-1.166c1.76,0.599,3.11,0.852,4.707,1.006
				l2.25,1.199l-12.454,6.617l2.486,1.326l-2.875,1.524l-8.438-4.483L162.064,233.733z"/>
		</g>
		<g>
			<path fill="#392624" d="M203.309,257.918c7.079-0.166,12.089-0.297,14.259-1.452c1.497-0.797,1.589-1.623,0.442-2.234
				c-0.962-0.511-2.438-0.5-3.93-0.417l0.233-1.904c2.934-0.159,4.987,0.062,6.887,1.067c2.618,1.392,2.456,3.361-0.489,4.923
				c-2.579,1.375-7.422,1.727-12.183,1.969c0.762,0.303,1.782,0.743,2.406,1.072l2.674,1.42l-2.994,1.589l-9.334-4.956
				L203.309,257.918z"/>
		</g>
		<g>
			<path fill="#392624" d="M244.451,280.2l3.66-0.44c-0.1,0.896,0.236,1.765,1.366,2.365c1.291,0.688,2.799,0.797,3.958,0.182
				c1.357-0.715,1.506-1.535-1.38-3.069l2.51-1.332c2.38,1.266,3.958,1.232,5.186,0.578c1.064-0.566,1.106-1.209,0.063-1.766
				c-0.938-0.5-2.161-0.609-3.837-0.604l0.622-1.975c2.423,0,4.509,0.314,6.137,1.183c2.734,1.452,3.054,3.239,0.377,4.66
				c-1.595,0.847-3.496,1.017-5.621,0.632l-0.096,0.055c1.013,1.078,0.867,2.337-1.108,3.388c-2.848,1.512-6.727,1.172-9.4-0.248
				C244.74,282.665,244.101,281.398,244.451,280.2z"/>
		</g>
		<g>
			<path fill="#392624" d="M279.02,310.836l-3.676-1.952l2.513-1.337l3.676,1.953l4.44-2.36l2.259,1.206l-4.44,2.353l3.679,1.959
				l-2.513,1.331l-3.679-1.953l-4.438,2.359l-2.258-1.198L279.02,310.836z"/>
		</g>
		<g>
			<path fill="#392624" d="M329.693,278.296l2.507-1.336l9.612,5.094l-2.507,1.336L329.693,278.296z"/>
		</g>
		<g>
			<path fill="#392624" d="M168.716,274.601c5.214-2.772,9.801-3.19,12.64-1.677c2.842,1.506,2.065,3.943-3.149,6.715
				c-5.217,2.773-9.92,3.251-12.762,1.739C162.605,279.87,163.505,277.373,168.716,274.601z M175.296,278.094
				c4.204-2.234,4.351-3.152,3.305-3.708c-1.022-0.545-2.776-0.479-6.977,1.754c-4.181,2.223-4.453,3.228-3.425,3.773
				C169.242,280.469,171.122,280.315,175.296,278.094z"/>
		</g>
		<g>
			<path fill="#392624" d="M126.154,252.34l9.612,5.11l-2.51,1.332l-9.612-5.104L126.154,252.34z M131.754,249.365l9.613,5.11
				l-2.507,1.332l-9.613-5.104L131.754,249.365z"/>
		</g>
		<g>
			<path fill="#392624" d="M213.715,298.906c1.282-0.682,3.036-0.775,4.106-0.209c1.063,0.567,0.893,1.502-0.386,2.185
				c-1.258,0.665-3.018,0.753-4.082,0.186C212.285,300.502,212.46,299.572,213.715,298.906z"/>
		</g>
		<g>
			<path fill="#392624" d="M206.449,213.993l-5.752-3.059l2.438-1.292l14.071-2.327l3.758,2.002l-8.952,4.758l1.523,0.809
				l-2.704,1.436l-1.527-0.809l-3.667,1.953l-2.862-1.524L206.449,213.993z M209.15,212.557l2.492-1.326
				c0.986-0.522,2.54-1.265,3.544-1.754l-0.081-0.044c-1.18,0.27-2.423,0.533-3.667,0.797l-5.086,0.836L209.15,212.557z"/>
		</g>
		<g>
			<path fill="#392624" d="M241.752,236.043l3.616-0.461c-0.049,0.874,0.217,1.733,1.345,2.332c1.355,0.72,3.059,0.753,4.627-0.083
				c1.548-0.819,1.506-1.716,0.272-2.37c-0.771-0.408-1.359-0.517-2.734-0.633l-0.368-1.27l8.125-3.916l7.524,3.992l-2.994,1.59
				l-4.868-2.585l-3.102,1.408c0.765,0.126,1.302,0.309,1.843,0.594c2.28,1.211,2.726,3.036-0.531,4.769
				c-3.407,1.81-7.637,1.639-10.229,0.264C242.104,238.519,241.582,237.243,241.752,236.043z"/>
		</g>
		<g>
			<path fill="#392624" d="M289.172,255.712c5.726-3.042,10.874-3.042,13.68-1.556c1.751,0.93,2.182,2.057,2.029,3.025l-3.738,0.275
				c0.119-0.55-0.206-1.265-0.983-1.678c-1.458-0.775-3.831-0.754-7.512,1.089c1.703-0.176,3.454,0.116,4.27,0.55
				c2.273,1.211,2.447,2.894-0.786,4.609c-3.188,1.695-7.148,1.667-9.547,0.391C284.018,261.053,283.788,258.573,289.172,255.712z
				 M293.334,260.542c1.62-0.858,1.488-1.567,0.484-2.101c-0.687-0.369-1.897-0.544-3.526-0.258
				c-2.143,1.424-2.038,2.304-1.114,2.794C290.096,261.466,291.596,261.466,293.334,260.542z"/>
		</g>
		<g>
			<path fill="#392624" d="M254.463,188.817l-5.952-3.168l2.995-1.59l9.235,4.912l-2.175,1.155c-7.372,0.649-10.679,1.942-16.897,5
				l-3.089-1.645C243.918,190.914,247.947,189.615,254.463,188.817z"/>
		</g>
		<g>
			<path fill="#392624" d="M282.82,214.208c1.858-0.99,3.996-1.057,6.024-0.803l0.098-0.049c-0.131-1.018,0.222-2.008,1.841-2.872
				c2.608-1.385,6.006-1.297,8.471,0.011c2.42,1.288,2.364,3.025-0.174,4.373c-1.473,0.787-3.468,0.979-5.088,0.863l-0.099,0.05
				c0.482,1.1,0.32,2.277-1.702,3.355c-2.415,1.282-6.135,1.254-8.952-0.242C280.583,217.479,280.331,215.527,282.82,214.208z
				 M289.448,217.546c1.354-0.715,0.729-1.584-0.123-2.91c-1.21,0.022-2.525,0.253-3.466,0.753c-1.348,0.715-1.204,1.64-0.098,2.228
				C286.782,218.162,288.166,218.228,289.448,217.546z M296.356,213.679c1.183-0.632,1.375-1.375,0.367-1.908
				c-0.81-0.435-2.062-0.484-3.241,0.148c-1.259,0.665-0.942,1.474-0.186,2.519C294.521,214.339,295.561,214.103,296.356,213.679z"
				/>
		</g>
		<g>
			<path fill="#392624" d="M322.068,237.842l3.755-0.258c-0.137,0.54,0.191,1.254,0.959,1.661c1.482,0.792,3.843,0.759,7.524-1.083
				c-1.706,0.175-3.457-0.116-4.275-0.55c-2.253-1.199-2.454-2.894,0.783-4.609c3.185-1.694,7.144-1.672,9.555-0.391
				c2.57,1.365,2.814,3.856-2.572,6.717c-5.722,3.035-10.895,3.035-13.674,1.556C322.367,239.954,321.939,238.799,322.068,237.842z
				 M336.649,236.846c2.145-1.43,2.062-2.293,1.121-2.793c-0.893-0.479-2.42-0.49-4.157,0.434c-1.619,0.857-1.467,1.579-0.466,2.112
				C333.841,236.968,335.039,237.143,336.649,236.846z"/>
		</g>
		<g>
			<path fill="#392624" d="M369.191,260.151l3.748-0.682l-1.07-1.826l2.218-0.665l1.84,1.595l3.12-1.37l1.607,0.853l-2.6,1.672
				l3.006,0.957l-1.237,1.188l-3.436-0.572l-1.279,1.992l-2.336-0.116l0.472-2.024l-3.837,0.237L369.191,260.151z"/>
		</g>
		<g>
			<path fill="#392624" d="M412.913,284.841c1.087-0.577,2.594-0.599,3.55-0.088c0.968,0.512,0.927,1.309-0.161,1.887
				c-1.088,0.572-2.588,0.601-3.557,0.088C411.79,286.217,411.826,285.42,412.913,284.841z M415.398,280.211l9.616,5.104
				l-2.516,1.337l-9.609-5.11L415.398,280.211z M421.603,280.221c1.087-0.577,2.593-0.599,3.55-0.087
				c0.968,0.511,0.927,1.308-0.161,1.886c-1.089,0.578-2.588,0.6-3.557,0.088C420.479,281.598,420.515,280.799,421.603,280.221z"/>
		</g>
		<g>
			<path fill="#392624" d="M283.854,167.201c5.214-2.772,11.25-2.799,14.695-0.968c1.751,0.935,2.208,2.2,2.043,3.267l-3.895,0.341
				c0.029-0.753-0.165-1.424-1.152-1.941c-1.864-0.99-5.246-0.765-8.411,0.913c-3.233,1.722-3.827,3.41-1.822,4.472
				c1.111,0.594,2.638,0.709,4.129,0.627l-0.595,2.046c-2.644,0.214-4.945-0.165-6.72-1.105
				C278.682,173.021,278.571,170.012,283.854,167.201z"/>
		</g>
		<g>
			<path fill="#392624" d="M445.489,255.949c4.44-2.359,9.161-2.552,12.339-0.863c3.18,1.693,2.792,4.207-1.625,6.55
				c-4.439,2.36-9.274,2.624-12.454,0.93C440.564,260.877,441.061,258.304,445.489,255.949z M453.473,260.189
				c2.707-1.44,3.317-2.843,1.709-3.696c-1.607-0.858-4.249-0.534-6.962,0.907c-2.726,1.453-3.437,2.91-1.829,3.762
				C448.005,262.021,450.741,261.636,453.473,260.189z"/>
			<path fill="#392624" d="M465.145,259.238l2.724,1.452l-3.668,5.22l-1.842,2.206l0.072,0.044c1.326-0.825,3.023-1.959,4.626-2.812
				l4.792-2.546l2.534,1.348l-13.578,7.216l-2.736-1.452l3.699-5.23l1.799-2.189l-0.072-0.038c-1.386,0.858-2.988,1.937-4.589,2.788
				l-4.817,2.558l-2.521-1.348L465.145,259.238z"/>
		</g>
		<g>
			<path fill="#392624" d="M369.031,298.081c4.494-2.388,9.711-2.408,12.698-0.819c1.518,0.809,1.907,1.903,1.77,2.821l-3.371,0.292
				c0.03-0.649-0.143-1.227-0.992-1.684c-1.613-0.853-4.547-0.659-7.271,0.787c-2.792,1.485-3.293,2.942-1.56,3.866
				c0.962,0.512,2.281,0.617,3.572,0.545l-0.507,1.771c-2.29,0.177-4.279-0.147-5.815-0.968
				C364.573,303.108,364.471,300.507,369.031,298.081z"/>
			<path fill="#392624" d="M386.978,300.314l7.374,3.922l-2.582,1.375l-4.721-2.509l-2.726,1.447l4.017,2.135l-2.564,1.362
				l-4.01-2.133l-3.132,1.661l4.912,2.606l-2.586,1.37l-7.561-4.015L386.978,300.314z"/>
		</g>
		<g>
			<path fill="#392624" d="M337.223,315.688l2.911,1.546l-4.142,4.219c-0.556,0.545-1.217,1.128-1.808,1.693l0.066,0.039
				c1.067-0.318,2.146-0.676,3.17-0.974l7.91-2.217l2.889,1.54l-13.574,7.218l-2.429-1.294l4.975-2.645
				c1.333-0.705,3.532-1.645,4.966-2.277l-0.066-0.033l-4.189,1.204l-6.867,1.864l-1.47-0.78l3.509-3.653l2.288-2.216l-0.077-0.038
				c-1.181,0.765-2.946,1.937-4.28,2.64l-4.975,2.646l-2.388-1.266L337.223,315.688z"/>
			<path fill="#392624" d="M345.602,328.421l-3.183-1.693l2.166-1.15l3.182,1.694l3.831-2.04l1.954,1.039l-3.83,2.035l3.19,1.693
				l-2.169,1.15l-3.188-1.694l-3.837,2.041l-1.948-1.039L345.602,328.421z"/>
		</g>
		<g>
			<path fill="#392624" d="M298.517,337.695l2.913,1.544l-4.142,4.22c-0.555,0.544-1.212,1.128-1.807,1.694l0.064,0.032
				c1.074-0.313,2.146-0.671,3.174-0.968l7.903-2.217l2.896,1.535l-13.582,7.216l-2.423-1.286l4.978-2.646
				c1.333-0.709,3.526-1.645,4.963-2.277l-0.066-0.032l-4.195,1.204l-6.864,1.859l-1.466-0.775l3.504-3.653l2.289-2.216
				l-0.074-0.038c-1.188,0.765-2.947,1.931-4.285,2.641l-4.976,2.645l-2.387-1.265L298.517,337.695z"/>
			<path fill="#392624" d="M304.438,348.525l4.449,2.358l-2.167,1.15l-4.449-2.36L304.438,348.525z"/>
		</g>
		<g>
			<path fill="#392624" d="M340.468,190.765l1.775,0.946l-23.674,4.763l-1.778-0.946L340.468,190.765z M324.296,187.459
				c3.137-1.667,6.395-1.887,8.352-0.847c1.97,1.045,1.572,2.789-1.563,4.456c-3.161,1.678-6.463,1.897-8.429,0.858
				C320.696,190.886,321.136,189.136,324.296,187.459z M328.931,189.923c2.251-1.193,2.44-1.892,1.742-2.26
				c-0.689-0.363-2.007-0.265-4.249,0.929c-2.243,1.193-2.479,1.914-1.792,2.282C325.328,191.238,326.69,191.117,328.931,189.923z
				 M328.017,196.161c3.135-1.667,6.398-1.887,8.361-0.848c1.963,1.046,1.572,2.789-1.569,4.456
				c-3.162,1.678-6.464,1.898-8.426,0.858C324.419,199.582,324.853,197.838,328.017,196.161z M332.658,198.625
				c2.247-1.193,2.429-1.892,1.741-2.254c-0.69-0.369-2.004-0.27-4.249,0.917c-2.247,1.194-2.477,1.92-1.784,2.288
				C329.053,199.945,330.414,199.818,332.658,198.625z"/>
		</g>
		<g>
			<path fill="#392624" d="M361.949,216.952l3.753-0.265c-0.144,0.54,0.185,1.254,0.956,1.661c1.482,0.792,3.849,0.759,7.518-1.078
				c-1.696,0.17-3.453-0.121-4.267-0.556c-2.259-1.199-2.456-2.893,0.777-4.609c3.19-1.694,7.146-1.672,9.55-0.391
				c2.569,1.364,2.82,3.855-2.564,6.716c-5.719,3.041-10.894,3.036-13.673,1.562C362.242,219.059,361.817,217.909,361.949,216.952z
				 M376.531,215.951c2.139-1.425,2.062-2.293,1.117-2.794c-0.891-0.473-2.421-0.489-4.159,0.435
				c-1.62,0.864-1.477,1.579-0.473,2.112C373.716,216.072,374.917,216.247,376.531,215.951z"/>
		</g>
		<g>
			<polygon fill="#392624" points="404.14,242.616 411.229,234.476 413.109,235.861 410.152,239.256 428.332,235.938 
				428.804,238.111 			"/>
		</g>
	</g>
	<g>
		<path fill="#2D1D1B" d="M163.415,372.963c0,0-12.625,3.542-15.834,7.485c-3.208,3.938-4.759,7.085-5.381,11.942
			c-0.621,4.851,1.584,7.897,7.243,7.666c4.966-0.197,7.456-2.568,8.295-5.176c0,0,13.945-1.353,21.083-5.924
			C185.96,384.387,175.162,371.747,163.415,372.963z"/>
		<path fill="#2D1D1B" d="M200.742,312.377c-11.179-2.283-25.004,1.567-36.783,6.605c-0.274,0.017-0.562,0.083-0.857,0.214
			c-14.098,6.237-47.146,20.721-46.975,21.177c-5.208,10.203,2.689,26.022,17.313,24.306c7.482,4.225,15.968,4.659,23.659,1.997
			c-0.359,0.473-5.593,7.321-9.518,13.772c4.053,1.893,5.582,3.548,11.863,8.509c6.795-2.529,17.086-10.763,22.883-14.801
			c5.778-4.026,25.628-23.827,25.628-40.494C215.284,327.37,213.665,315.017,200.742,312.377z"/>
		<path fill="#402B29" d="M203.031,384.673c-0.64-7.305-5.457-17.524-8.824-22.149c-8.862-12.194-12.275-20.126-21.771-25.72
			c-11.454-6.743-18.72,5.351-30.756,6.92c-0.117-0.066-12.57-4.583-13.44-5.011c0.21,0.345,0.347,17.271,5.2,25.966
			c2.791,4.994,10.345,9.429,21.486,9.714c4.518,7.14,11.57,12.227,13.569,13.129c-3.476,2.52-7.393,4.341-13.261,9.438
			c-8.444,7.333-18.902,15.528-29.121,21.892c2.597,1.326,5.074,3.46,6.104,4.73c1.561,1.926,2.591,3.63,3.153,6.799
			c19.118-4.021,34.266-13.229,49.975-23.427c5.647-3.663,8.719-7.425,12.737-11.995
			C205.809,393.814,205.46,386.769,203.031,384.673z"/>
		<path fill="#EDDCDA" d="M161.258,252.16c0,0-14.002-14.064-27.818,1.941c-4.267,4.95-4.823,9.009-6.045,11.721
			c-5.122,8.124-13.479,19.707-16.679,27.402c-1.33,3.202-0.526,8.19,0.539,9.51c2.115,2.618,25.225,10.776,32.59,3.339
			C158.67,291.107,161.258,252.16,161.258,252.16z"/>
		<g>
			<path fill="#FBC8B7" d="M184.365,258.809l-11.233,8.476c-6.057-1.979-10.663-8.563-13.263-14.873
				c2.216-1.633,10.072-5.765,10.625-7.953c-2.336-6.012,1.199-11.072,7.258-16.474c6.353-5.655,17.815-5.599,24.693-0.605
				c1.004,0.363,6.135,3.762,5.447,9.494c-0.767,6.397-4.735,21.764-10.64,24.532C193.134,263.335,188.329,260.189,184.365,258.809z
				"/>
			<path fill="#4454A5" d="M168.202,227.897c0.592-4.879,3.476-9.257,9.165-11.655c6.406-2.701,17.841-3.086,23.001,2.233
				c0.096-0.171,0.134-0.363,0.263-0.517c1.596-1.881,4.214-1.59,6.09-0.281c1.479,1.035,2.59,2.542,3.313,4.208
				c1.106-0.329,2.352-0.346,3.407,0.056c3.723,1.418,3.579,6.28,2.264,9.113c-2.725,5.88-12.816,12.316-20.253,10.709
				c0.371,3.427-1.446,5.28-4.425,7.525c-4.659,3.509-11.354,3.696-16.632,1.287c-5.97-2.723-11.402-9.015-10.978-15.428
				C163.618,232.138,165.513,229.305,168.202,227.897z"/>
			<path fill="#FBC8B7" d="M198.082,243.304c0,0-1.35-4.004-5.453-1.496c-4.105,2.509,0.804,9.983,0.804,9.983L198.082,243.304z"/>
		</g>
		<path fill="#FFFFFF" d="M156.976,249.816c6.884,2.745,6.403,3.889,20.719,14.026c14.318,10.137,15.06,16.104,13.757,22.386
			c-1.306,6.281-2.291,9.499-7.864,21.743c-7.093,15.592-16.177,24.063-16.177,24.063s4.876,1.375,7.082,2.64
			c2.205,1.26,2.746,8.201,0.281,10.329c-7.043,6.095-36.275,21.501-60.343-0.681c1.093-17.442,7.921-52.666,12.771-66.422
			C132.689,262.34,150.938,247.413,156.976,249.816z"/>
		<path fill="#EDDCDA" d="M165.73,335.774c0,0-8.917,4.467-17.145,6.469c-8.229,2.008-9.26,1.738-15.146,2.788
			c2.286,0,15.083,1.172,20.342-1.726C159.044,340.406,165.73,335.774,165.73,335.774z"/>
		<path fill="#EDDCDA" d="M137.784,332.173c0,0,4.745,3.602,11.803,2.97c7.058-0.633,11.516-1.419,11.516-1.419
			s-7.602-1.997-11.516-1.551C145.672,332.618,137.784,332.173,137.784,332.173z"/>
		<path fill="#2D1D1B" d="M135.922,412.196c0,0-10.383-0.659-14.624,0c-4.236,0.666-4.858,7.711-8.581,11.044
			c-3.726,3.328-14.51,5.044-17.382,11.898c-2.871,6.857,2.373,17.463,9.111,14.854c11.062-4.284,33.403-21.423,33.403-21.423
			S142.992,421.25,135.922,412.196z"/>
		<path fill="#FBC8B7" d="M260.849,304.468c-2.509,0.951-3.794,1.38-6.236,2.232c0.236-2.074,2.681-3.646,1.715-5.765
			c-0.72-1.584-2.352-0.137-4.422,2.481c-2.06,2.597-3.678,5.131-6.388,6.825c0,0-2.958,7.695,0.008,9.125
			c2.971,1.426,14.187-0.742,17.292-1.919c3.105-1.178,8.514-2.739,11.456-8.234C277.893,302.455,267.665,301.898,260.849,304.468z"
			/>
		<path fill="#EDDCDA" d="M246.507,309.526c-9.933,0-25.757-1.121-34.198-0.565c-0.003-0.033-2.357-8.229-10.515-17.788
			c-3.153-13.706-11.973-21.292-17.881-22.453c-8.315-1.638-15.26,3.905-15.242,12.172c0.036,16.231,7.81,24.763,12.439,25.467
			c-0.368,8.603,12.081,18.569,18,19.146c1.897,4.038,5.459,8.02,11.767,7.479c11.217-0.956,31.607-9.998,38.931-12.952
			C251.087,317.52,250.636,313.218,246.507,309.526z"/>
	</g>
	<g>
		<path fill="#FAB8A4" d="M86.017,331.149c-1.255-1.051-1.859-8.784-2.155-16.496c1.554-11.44-2.324-30.806-2.324-42.638
			c0-7.013,1.208-22.848,2.82-33.98c1.327-9.186,3.188-17.254,4.13-26.506c3.092-12.375,3.877-25.12,2.39-38.007
			c-11.029,3.52-23.608,4.978-35.587,4.774c-1.291,9.389-1.226,18.844,0.735,28.2c1.174,5.61,3.146,10.891,5.276,16.231
			c1.56,3.91,3.186,7.678,3.386,11.887c0.227,4.741-4.575,12.359-5.538,16.858c-2.906,13.602,3.243,21.924,7.558,39.684
			c1.729,7.118,2.059,12.315,2.246,14.966c-1.634,1.723-2.273,2.674-2.949,3.841c-2.639,4.564,1.515,8.53,3.651,12.183
			c2.139,3.646,0.908,14.296,3.487,15.989c2.579,1.694,11.161,6.788,16.963,4.362C94.335,340.726,89.53,334.103,86.017,331.149z"/>
		<path fill="#FBC8B7" d="M147.328,89.812c-3.819,4.549-8.229,6.541-9.992,6.32c-1.764-0.219,0.589-3.03,1.763-6.32
			c1.177-3.294-2.056-2.387-4.996,1.397c-2.94,3.791-1.47,7.844-3.53,9.203c-2.056,1.354-13.721,4.774-19.894,5.858
			c-2.495,0.434-7.724,1.655-10.874,2.519c-3.881-5.803-13.993-21.165-19.473-32.029c-6.295-12.485-22.067-4.933-22.067-4.933
			l11.417,28.502c0,0,17.609,15.836,24.168,23.069c3.546,3.917,7.858,2.618,16.09,0.996c8.229-1.623,20.564-12.442,27.983-17.222
			c4.425-2.849,17.342-6.765,18.116-14.878C156.814,84.174,151.149,85.257,147.328,89.812z"/>
		<g>
			<path fill="#2D1D1B" d="M65.067,316.678c2.513,7.085,5.701,18.733,6.057,22.045c0.353,3.313,6.32,7.712,16.519,7.31
				c10.198-0.406,6.469-4.9,4.123-8.349c-1.097-1.612-2.151-2.865-3.147-4.202c0,0-1.627,2.794-5.856,3.239
				c-4.23,0.451-6.036-0.104-8.235-3.817c-2.2-3.713-5.499-14.845-6.828-17.996c-1.327-3.146,1.254-8.785,1.254-8.785l-0.009,0.012
				C66.182,309.182,63.113,311.172,65.067,316.678z"/>
			<path fill="#2D1D1B" d="M64.691,315.38v16.425c0,0.302,0.587,0.549,1.314,0.549c0.726,0,1.314-0.247,1.314-0.549v-12.629
				L64.691,315.38z"/>
		</g>
		<path fill="#FBC8B7" d="M52.457,343.135c-1.129-1.172-0.848-8.922-0.26-16.617c2.851-11.231,1.205-30.862,2.555-42.626
			c0.801-6.975,3.813-22.602,6.685-33.52c2.369-9.004,5.143-16.853,7.135-25.961c4.485-12.007,6.726-24.604,6.715-37.563
			c-11.37,2.432-24.045,2.668-35.935,1.304c-2.357,9.213-3.37,18.618-2.489,28.111c0.528,5.699,1.885,11.139,3.395,16.655
			c1.105,4.042,2.292,7.943,2.011,12.145c-0.317,4.741-4.805,13.036-6.17,17.442c-4.826,15.544-0.538,20.906,1.724,38.987
			c0.906,7.243,0.643,12.446,0.526,15.104c-1.823,1.551-2.567,2.437-3.371,3.531c-3.146,4.284,0.529,8.63,2.241,12.463
			c1.709,3.84-0.731,14.307,1.641,16.243c2.369,1.936,10.323,7.832,16.371,5.979C59.638,353.458,55.615,346.407,52.457,343.135z"/>
		<g>
			<path fill="#2D1D1B" d="M33.274,326.716c1.692,7.288,3.532,19.179,3.508,22.508c-0.027,3.327,5.405,8.277,15.592,8.866
				c10.189,0.583,6.995-4.252,5.055-7.91c-0.905-1.704-1.814-3.058-2.65-4.481c0,0-1.937,2.629-6.194,2.661
				c-4.258,0.033-5.988-0.692-7.754-4.598c-1.763-3.9-3.774-15.291-4.733-18.553c-0.962-3.263,2.25-8.613,2.25-8.613l-0.012,0.005
				C35.241,319.367,31.963,321.046,33.274,326.716z"/>
			<path fill="#2D1D1B" d="M33.05,325.386l-1.873,16.335c-0.037,0.303,0.523,0.605,1.242,0.671c0.723,0.072,1.336-0.115,1.372-0.418
				l1.44-12.557L33.05,325.386z"/>
		</g>
		<path fill="#6F96CE" d="M88.833,151.151c-3.959-7.046-9.05-11.765-8.97-16.897c0.114-7.403,0.355-16.418-1.718-23.376
			c2.223-2.777,9.538-6.144,5.904-15.384c-2.008-5.11-6.559-9.736-8.116-11.688c-2.449-3.069-6.804-8.245-11.163-11.011
			c-4.327-2.746-5.982-1.095-10.309,0.637c-0.413,0.166-15.646,4.67-26.184,11.331c-1.981,1.254-5.752,3.493-7.058,4.9
			c-3.362,3.63-2.48,6.727-2.474,10.275c0,0.253,11.948,20.087,17.79,32.474c2.095,4.433,4.754,6.975,1.476,12.469
			c-4.237,7.102-7.951,9.907-11.726,24.119c-8.707,32.804,11.427,77.747,11.427,77.747s8.486,7.079,22.488,6.275
			c18.696-1.067,26.312-8.844,26.312-8.844s7.01-30.521,7.291-53.298C93.991,175.782,93.812,160.013,88.833,151.151z"/>
		<path fill="#4454A5" d="M69.116,70.709c0.529-2.756-0.248-5.715-2.155-7.992c-2.474-2.959-7.846-5.49-11.698-3.367
			c-0.047,0.028-0.068,0.072-0.104,0.104c-3.003,0.534-5.406,3.559-5.331,6.386c-2.397,6.649,5.164,12.893,11.86,11.902
			c-0.511,1.92-0.413,4.004,0.504,5.709c1.64,3.053,5.227,4.026,8.172,1.804c3.045-2.299,4.937-6.71,3.769-10.247
			C73.41,72.833,71.42,71.227,69.116,70.709z"/>
		<path fill="#FAB8A4" d="M44.252,86.049c3.745,0.649,6.745,0.006,10.104-2.508c2.471-1.848,2.874-4.147,3.13-5.836
			c-1.619-1.012-3.233-3.168-3.429-6.149c-0.141-2.084,0.52-4.224,0.564-6.347c-3.406-1.402-6.519-3.426-10.348-3.971
			c-2.1-0.298-5.414-5.424-7.428-6.254c1.691,4.472,0.618,11.089,0.265,13.778c-0.409,3.103-1.213,9.604-3.287,12.871
			C35.062,82.964,40.79,85.45,44.252,86.049z"/>
		<path fill="#FBC8B7" d="M67.476,46.184c-0.631-4.835-2.29-10.853-6.637-14.021c-4.296-3.135-8.489-3.273-13.661-2.563
			c-8.018,1.1-14.179,12.375-11.946,21.764c2.062,8.669,8.031,19.356,18.809,20.423C66.029,72.976,68.438,53.537,67.476,46.184z"/>
		<path fill="#FBC8B7" d="M46.335,49.776c0,0-4.354-4.484-6.213-0.969c-1.861,3.515,1.671,9.51,4.719,8.866
			C47.889,57.03,46.335,49.776,46.335,49.776z"/>
		<path fill="#4454A5" d="M72.224,25.415c-5.716-5.094-16.832-5.936-23.232-1.8c-3.009-3.316-8.442-2.822-12.759-0.935
			c-4.56,1.992-7.066,6.535-6.613,11.001c-8.548,0.386-12.797,12.194-7.111,17.771c-2.552,1.871-4.18,4.813-3.923,8.13
			c0.389,4.983,4.625,8.454,9.47,9.944c-3.333,2.646-5.818,5.88-4.04,10.281c2.273,5.621,9.009,6.963,14.793,7.42
			c-0.003,0.021-0.006,0.033-0.015,0.055c-1.602,3.9,0.813,7.189,3.048,9.087c3.371,2.86,7.676,2.733,10.982,0.489
			c3.211-2.184,4.789-6.111,2.13-9.229c-0.667-0.776-3.075-3.164-5.687-3.164c1.951-5.494-1.844-10.109-7.317-9.861
			c1.126-2.811,1.425-5.626-0.308-7.843c3.917-3.113,6.576-7.398,6.502-12.326c-0.031-1.865-0.476-3.663-1.581-4.896
			c6.14-2.558,10.455-7.001,12.586-13.167c2.626,1.073,5.083,2.827,6.612,4.835c1.773,2.326,2.017,7.536,1.892,9.218
			C79.508,46.14,79.69,32.07,72.224,25.415z"/>
		<path fill="#5583C3" d="M37.714,134.706l0.299,10.175c0,0,15.083,6.364,26.923,4.846c14.318-1.832,17.754-7.415,17.754-7.415
			l-2.77-12.321c0,0-1.192,4.56-13.586,5.649C53.939,136.73,37.714,134.706,37.714,134.706z"/>
		<path fill="#5583C3" d="M47.826,185.644c0,0,2.558,12.651,14.104,15.352c11.542,2.701,17.91,0,17.91,0s-12.929-1.903-18.35-5.05
			C56.244,192.904,47.826,185.644,47.826,185.644z"/>
		<path fill="#5583C3" d="M62.109,185.644c0,0,7.696-0.759,13.195-6.325C80.806,173.752,82.69,169,82.69,169
			s0.845,10.813-7.127,15.115C67.592,188.416,62.109,185.644,62.109,185.644z"/>
		<path fill="#5583C3" d="M51.349,207.409c0,0,6.917,12.904,15.983,18.217c5.663,3.317,11.274,2.784,11.274,2.784
			s-4.766-4.301-11.181-8.097C61.01,216.517,51.349,207.409,51.349,207.409z"/>
		<path fill="#5583C3" d="M45.653,116.989c0,0,10.085,1.837,14.549,0c4.771-1.97,11.54-5.825,11.54-5.825s-1.724,7.794-11.54,9.505
			C51.248,122.23,45.653,116.989,45.653,116.989z"/>
		<g>
			<polygon fill="#F3EAE9" points="71.922,120.839 74.348,122.093 55.658,162.471 53.231,161.211 			"/>
			<polygon fill="#FAFAFA" points="106.586,104.966 104.159,103.706 71.922,120.839 74.348,122.093 			"/>
			<polygon fill="#2D1D1B" points="88.197,153.368 49.745,173.802 72.039,125.641 110.491,105.208 			"/>
			<polygon fill="#402B29" points="69.143,124.139 72.039,125.641 49.745,173.802 46.846,172.3 			"/>
			<polygon fill="#573C3A" points="110.491,105.208 107.596,103.706 69.143,124.139 72.039,125.641 			"/>
		</g>
		<path fill="#FBC8B7" d="M75.537,148.973c-2.433-0.49-6.167,1.992-8.716,2.794c-2.546,0.803-6.86-0.076-7.378-0.747
			c-1.051-1.37,1.282-4.819,0.392-6.777c-0.637-1.403-1.59-0.39-3.612,2.783c-1.97,3.086-2.184,4.956-3.81,6.452
			c0,0-12.839-2.596-17.642-6.21c-9.705-7.293-16.132-7.767-16.132-7.767s7.798-13.476,9.149-20.664
			c4.407-1.249,12.365-0.347,9.926-13.63c-2.435-13.283-12.158-18.74-12.158-18.74s-12.711,2.685-12.033,14.851
			c-4.073,13.146-6.451,18.91-8.148,25.246c-1.697,6.332-1.019,9.868-2.038,13.411c-1.016,3.547,0.179,5.027,4.754,9.988
			c2.683,2.904,10.548,7.932,21.486,10.512c4.258,1.001,20.45,2.679,25.157,1.348c4.706-1.332,13.885-0.974,18.773-5.676
			C76.451,153.308,79.373,149.732,75.537,148.973z"/>
	</g>
</g>
</svg>
